<?xml version="1.0" encoding="utf-8" standalone="no"?>
<!DOCTYPE svg PUBLIC "-//W3C//DTD SVG 1.1//EN"
  "http://www.w3.org/Graphics/SVG/1.1/DTD/svg11.dtd">
<svg xmlns:xlink="http://www.w3.org/1999/xlink" width="460.8pt" height="345.6pt" viewBox="0 0 460.8 345.6" xmlns="http://www.w3.org/2000/svg" version="1.1">
 <metadata>
  <rdf:RDF xmlns:dc="http://purl.org/dc/elements/1.1/" xmlns:cc="http://creativecommons.org/ns#" xmlns:rdf="http://www.w3.org/1999/02/22-rdf-syntax-ns#">
   <cc:Work>
    <dc:type rdf:resource="http://purl.org/dc/dcmitype/StillImage"/>
    <dc:date>2023-12-11T15:15:32.992730</dc:date>
    <dc:format>image/svg+xml</dc:format>
    <dc:creator>
     <cc:Agent>
      <dc:title>Matplotlib v3.8.2, https://matplotlib.org/</dc:title>
     </cc:Agent>
    </dc:creator>
   </cc:Work>
  </rdf:RDF>
 </metadata>
 <defs>
  <style type="text/css">*{stroke-linejoin: round; stroke-linecap: butt}</style>
 </defs>
 <g id="figure_1">
  <g id="patch_1">
   <path d="M 0 345.6 
L 460.8 345.6 
L 460.8 0 
L 0 0 
z
" style="fill: #ffffff"/>
  </g>
  <g id="axes_1">
   <g id="patch_2">
    <path d="M 57.6 186.624 
L 414.72 186.624 
L 414.72 41.472 
L 57.6 41.472 
z
" style="fill: #e3e3e3"/>
   </g>
   <g id="matplotlib.axis_1">
    <g id="xtick_1">
     <g id="line2d_1">
      <path d="M 89.466092 186.624 
L 89.466092 41.472 
" clip-path="url(#p8f704c9367)" style="fill: none; stroke: #ffffff; stroke-linecap: round"/>
     </g>
    </g>
    <g id="xtick_2">
     <g id="line2d_2">
      <path d="M 155.395938 186.624 
L 155.395938 41.472 
" clip-path="url(#p8f704c9367)" style="fill: none; stroke: #ffffff; stroke-linecap: round"/>
     </g>
    </g>
    <g id="xtick_3">
     <g id="line2d_3">
      <path d="M 221.325785 186.624 
L 221.325785 41.472 
" clip-path="url(#p8f704c9367)" style="fill: none; stroke: #ffffff; stroke-linecap: round"/>
     </g>
    </g>
    <g id="xtick_4">
     <g id="line2d_4">
      <path d="M 287.255631 186.624 
L 287.255631 41.472 
" clip-path="url(#p8f704c9367)" style="fill: none; stroke: #ffffff; stroke-linecap: round"/>
     </g>
    </g>
    <g id="xtick_5">
     <g id="line2d_5">
      <path d="M 353.185477 186.624 
L 353.185477 41.472 
" clip-path="url(#p8f704c9367)" style="fill: none; stroke: #ffffff; stroke-linecap: round"/>
     </g>
    </g>
    <g id="xtick_6"/>
    <g id="xtick_7"/>
    <g id="xtick_8"/>
    <g id="xtick_9"/>
    <g id="xtick_10"/>
    <g id="xtick_11"/>
    <g id="xtick_12"/>
    <g id="xtick_13"/>
    <g id="xtick_14"/>
    <g id="xtick_15"/>
    <g id="xtick_16"/>
    <g id="xtick_17"/>
    <g id="xtick_18"/>
    <g id="xtick_19"/>
    <g id="xtick_20"/>
    <g id="xtick_21"/>
    <g id="xtick_22"/>
    <g id="xtick_23"/>
    <g id="xtick_24"/>
    <g id="xtick_25"/>
    <g id="xtick_26"/>
    <g id="xtick_27"/>
   </g>
   <g id="matplotlib.axis_2">
    <g id="ytick_1">
     <g id="line2d_6">
      <path d="M 57.6 167.062261 
L 414.72 167.062261 
" clip-path="url(#p8f704c9367)" style="fill: none; stroke: #ffffff; stroke-linecap: round"/>
     </g>
     <g id="text_1">
      <!-- 0.010 -->
      <g style="fill: #262626" transform="translate(16.609063 171.241401) scale(0.11 -0.11)">
       <defs>
        <path id="DejaVuSans-30" d="M 2034 4250 
Q 1547 4250 1301 3770 
Q 1056 3291 1056 2328 
Q 1056 1369 1301 889 
Q 1547 409 2034 409 
Q 2525 409 2770 889 
Q 3016 1369 3016 2328 
Q 3016 3291 2770 3770 
Q 2525 4250 2034 4250 
z
M 2034 4750 
Q 2819 4750 3233 4129 
Q 3647 3509 3647 2328 
Q 3647 1150 3233 529 
Q 2819 -91 2034 -91 
Q 1250 -91 836 529 
Q 422 1150 422 2328 
Q 422 3509 836 4129 
Q 1250 4750 2034 4750 
z
" transform="scale(0.015625)"/>
        <path id="DejaVuSans-2e" d="M 684 794 
L 1344 794 
L 1344 0 
L 684 0 
L 684 794 
z
" transform="scale(0.015625)"/>
        <path id="DejaVuSans-31" d="M 794 531 
L 1825 531 
L 1825 4091 
L 703 3866 
L 703 4441 
L 1819 4666 
L 2450 4666 
L 2450 531 
L 3481 531 
L 3481 0 
L 794 0 
L 794 531 
z
" transform="scale(0.015625)"/>
       </defs>
       <use xlink:href="#DejaVuSans-30"/>
       <use xlink:href="#DejaVuSans-2e" x="63.623047"/>
       <use xlink:href="#DejaVuSans-30" x="95.410156"/>
       <use xlink:href="#DejaVuSans-31" x="159.033203"/>
       <use xlink:href="#DejaVuSans-30" x="222.65625"/>
      </g>
     </g>
    </g>
    <g id="ytick_2">
     <g id="line2d_7">
      <path d="M 57.6 141.65052 
L 414.72 141.65052 
" clip-path="url(#p8f704c9367)" style="fill: none; stroke: #ffffff; stroke-linecap: round"/>
     </g>
     <g id="text_2">
      <!-- 0.015 -->
      <g style="fill: #262626" transform="translate(16.609063 145.82966) scale(0.11 -0.11)">
       <defs>
        <path id="DejaVuSans-35" d="M 691 4666 
L 3169 4666 
L 3169 4134 
L 1269 4134 
L 1269 2991 
Q 1406 3038 1543 3061 
Q 1681 3084 1819 3084 
Q 2600 3084 3056 2656 
Q 3513 2228 3513 1497 
Q 3513 744 3044 326 
Q 2575 -91 1722 -91 
Q 1428 -91 1123 -41 
Q 819 9 494 109 
L 494 744 
Q 775 591 1075 516 
Q 1375 441 1709 441 
Q 2250 441 2565 725 
Q 2881 1009 2881 1497 
Q 2881 1984 2565 2268 
Q 2250 2553 1709 2553 
Q 1456 2553 1204 2497 
Q 953 2441 691 2322 
L 691 4666 
z
" transform="scale(0.015625)"/>
       </defs>
       <use xlink:href="#DejaVuSans-30"/>
       <use xlink:href="#DejaVuSans-2e" x="63.623047"/>
       <use xlink:href="#DejaVuSans-30" x="95.410156"/>
       <use xlink:href="#DejaVuSans-31" x="159.033203"/>
       <use xlink:href="#DejaVuSans-35" x="222.65625"/>
      </g>
     </g>
    </g>
    <g id="ytick_3">
     <g id="line2d_8">
      <path d="M 57.6 116.238779 
L 414.72 116.238779 
" clip-path="url(#p8f704c9367)" style="fill: none; stroke: #ffffff; stroke-linecap: round"/>
     </g>
     <g id="text_3">
      <!-- 0.020 -->
      <g style="fill: #262626" transform="translate(16.609063 120.417919) scale(0.11 -0.11)">
       <defs>
        <path id="DejaVuSans-32" d="M 1228 531 
L 3431 531 
L 3431 0 
L 469 0 
L 469 531 
Q 828 903 1448 1529 
Q 2069 2156 2228 2338 
Q 2531 2678 2651 2914 
Q 2772 3150 2772 3378 
Q 2772 3750 2511 3984 
Q 2250 4219 1831 4219 
Q 1534 4219 1204 4116 
Q 875 4013 500 3803 
L 500 4441 
Q 881 4594 1212 4672 
Q 1544 4750 1819 4750 
Q 2544 4750 2975 4387 
Q 3406 4025 3406 3419 
Q 3406 3131 3298 2873 
Q 3191 2616 2906 2266 
Q 2828 2175 2409 1742 
Q 1991 1309 1228 531 
z
" transform="scale(0.015625)"/>
       </defs>
       <use xlink:href="#DejaVuSans-30"/>
       <use xlink:href="#DejaVuSans-2e" x="63.623047"/>
       <use xlink:href="#DejaVuSans-30" x="95.410156"/>
       <use xlink:href="#DejaVuSans-32" x="159.033203"/>
       <use xlink:href="#DejaVuSans-30" x="222.65625"/>
      </g>
     </g>
    </g>
    <g id="ytick_4">
     <g id="line2d_9">
      <path d="M 57.6 90.827038 
L 414.72 90.827038 
" clip-path="url(#p8f704c9367)" style="fill: none; stroke: #ffffff; stroke-linecap: round"/>
     </g>
     <g id="text_4">
      <!-- 0.025 -->
      <g style="fill: #262626" transform="translate(16.609063 95.006178) scale(0.11 -0.11)">
       <use xlink:href="#DejaVuSans-30"/>
       <use xlink:href="#DejaVuSans-2e" x="63.623047"/>
       <use xlink:href="#DejaVuSans-30" x="95.410156"/>
       <use xlink:href="#DejaVuSans-32" x="159.033203"/>
       <use xlink:href="#DejaVuSans-35" x="222.65625"/>
      </g>
     </g>
    </g>
    <g id="ytick_5">
     <g id="line2d_10">
      <path d="M 57.6 65.415297 
L 414.72 65.415297 
" clip-path="url(#p8f704c9367)" style="fill: none; stroke: #ffffff; stroke-linecap: round"/>
     </g>
     <g id="text_5">
      <!-- 0.030 -->
      <g style="fill: #262626" transform="translate(16.609063 69.594437) scale(0.11 -0.11)">
       <defs>
        <path id="DejaVuSans-33" d="M 2597 2516 
Q 3050 2419 3304 2112 
Q 3559 1806 3559 1356 
Q 3559 666 3084 287 
Q 2609 -91 1734 -91 
Q 1441 -91 1130 -33 
Q 819 25 488 141 
L 488 750 
Q 750 597 1062 519 
Q 1375 441 1716 441 
Q 2309 441 2620 675 
Q 2931 909 2931 1356 
Q 2931 1769 2642 2001 
Q 2353 2234 1838 2234 
L 1294 2234 
L 1294 2753 
L 1863 2753 
Q 2328 2753 2575 2939 
Q 2822 3125 2822 3475 
Q 2822 3834 2567 4026 
Q 2313 4219 1838 4219 
Q 1578 4219 1281 4162 
Q 984 4106 628 3988 
L 628 4550 
Q 988 4650 1302 4700 
Q 1616 4750 1894 4750 
Q 2613 4750 3031 4423 
Q 3450 4097 3450 3541 
Q 3450 3153 3228 2886 
Q 3006 2619 2597 2516 
z
" transform="scale(0.015625)"/>
       </defs>
       <use xlink:href="#DejaVuSans-30"/>
       <use xlink:href="#DejaVuSans-2e" x="63.623047"/>
       <use xlink:href="#DejaVuSans-30" x="95.410156"/>
       <use xlink:href="#DejaVuSans-33" x="159.033203"/>
       <use xlink:href="#DejaVuSans-30" x="222.65625"/>
      </g>
     </g>
    </g>
   </g>
   <g id="line2d_11">
    <path d="M 57.6 50.222106 
L 58.698831 48.069818 
L 59.797662 51.801362 
L 60.896492 66.753696 
L 63.094154 48.731712 
L 64.192985 55.132128 
L 66.390646 52.992811 
L 67.489477 62.132218 
L 68.588308 76.985095 
L 69.687138 81.853246 
L 70.785969 82.769245 
L 71.8848 86.888882 
L 72.983631 94.439802 
L 74.082462 107.483155 
L 75.181292 107.905469 
L 76.280123 121.679955 
L 77.378954 121.204691 
L 78.477785 119.935729 
L 79.576615 119.314718 
L 80.675446 115.968031 
L 81.774277 120.962524 
L 82.873108 120.716618 
L 83.971938 117.495607 
L 85.070769 133.860446 
L 86.1696 138.057914 
L 87.268431 136.030189 
L 88.367262 147.987348 
L 89.466092 143.732424 
L 90.564923 140.496214 
L 91.663754 140.108283 
L 92.762585 149.425423 
L 93.861415 134.771162 
L 94.960246 124.873741 
L 96.059077 125.428806 
L 97.157908 112.794735 
L 98.256738 113.210237 
L 99.355569 93.950217 
L 100.4544 97.590049 
L 101.553231 93.168197 
L 102.652062 83.755038 
L 103.750892 99.961649 
L 104.849723 107.238459 
L 105.948554 94.536009 
L 107.047385 89.765033 
L 108.146215 101.704235 
L 109.245046 97.585122 
L 110.343877 99.11375 
L 111.442708 89.987935 
L 112.541538 88.215802 
L 113.640369 85.045553 
L 114.7392 84.859035 
L 115.838031 72.562391 
L 116.936862 72.316533 
L 118.035692 79.849723 
L 119.134523 73.532277 
L 120.233354 65.345606 
L 121.332185 67.620395 
L 122.431015 65.589567 
L 123.529846 75.914698 
L 124.628677 74.870924 
L 126.826338 88.765138 
L 127.925169 86.728017 
L 129.024 89.992797 
L 130.122831 89.128131 
L 131.221662 75.545799 
L 132.320492 70.291772 
L 133.419323 66.386967 
L 134.518154 65.980256 
L 135.616985 63.503448 
L 136.715815 69.816361 
L 137.814646 73.172265 
L 138.913477 63.356905 
L 140.012308 69.340015 
L 141.111138 82.50397 
L 142.209969 101.416739 
L 144.407631 86.130024 
L 145.506462 89.815271 
L 146.605292 103.429886 
L 147.704123 113.553858 
L 148.802954 105.97565 
L 149.901785 101.080059 
L 151.000615 102.174723 
L 152.099446 97.383836 
L 153.198277 93.26474 
L 154.297108 92.781383 
L 155.395938 87.044973 
L 157.5936 85.664212 
L 158.692431 72.842611 
L 159.791262 65.378124 
L 160.890092 62.223231 
L 161.988923 64.7386 
L 163.087754 65.310583 
L 164.186585 73.786589 
L 165.285415 75.715507 
L 167.483077 76.701116 
L 168.581908 75.658802 
L 169.680738 79.123432 
L 170.779569 78.508584 
L 171.8784 79.119454 
L 172.977231 81.307524 
L 174.076062 91.131451 
L 175.174892 94.017803 
L 176.273723 92.615492 
L 177.372554 89.015738 
L 178.471385 81.830077 
L 179.570215 81.748568 
L 180.669046 84.723414 
L 181.767877 81.474858 
L 182.866708 76.05465 
L 183.965538 79.973751 
L 185.064369 75.469048 
L 186.1632 76.633725 
L 187.262031 80.458304 
L 188.360862 79.219155 
L 189.459692 81.120297 
L 190.558523 90.167228 
L 191.657354 92.086588 
L 192.756185 92.619577 
L 193.855015 94.465142 
L 194.953846 94.289752 
L 196.052677 94.727195 
L 197.151508 94.462651 
L 198.250338 90.732996 
L 199.349169 94.034311 
L 200.448 93.407888 
L 201.546831 94.56895 
L 202.645662 96.734782 
L 203.744492 97.912843 
L 204.843323 96.557255 
L 205.942154 103.508331 
L 207.040985 106.756852 
L 208.139815 105.461553 
L 209.238646 105.207518 
L 212.535138 92.681646 
L 213.633969 84.490759 
L 214.7328 83.771002 
L 215.831631 89.579731 
L 216.930462 103.366714 
L 218.029292 122.429939 
L 219.128123 134.600658 
L 220.226954 150.560663 
L 221.325785 144.815743 
L 222.424615 137.699478 
L 223.523446 136.322608 
L 224.622277 127.774937 
L 225.721108 123.64817 
L 226.819938 112.493418 
L 227.918769 111.116092 
L 229.0176 105.686713 
L 230.116431 107.846273 
L 231.215262 100.597699 
L 232.314092 97.825295 
L 233.412923 89.369099 
L 234.511754 86.872708 
L 235.610585 90.149475 
L 236.709415 89.385121 
L 237.808246 86.142213 
L 238.907077 95.662315 
L 240.005908 100.808719 
L 241.104738 104.12078 
L 242.203569 106.74857 
L 243.3024 105.293934 
L 244.401231 102.991837 
L 246.598892 93.97631 
L 247.697723 92.972186 
L 248.796554 93.943059 
L 250.994215 79.690039 
L 252.093046 84.414112 
L 253.191877 94.232104 
L 254.290708 90.302146 
L 255.389538 99.32434 
L 256.488369 111.652861 
L 258.686031 107.396947 
L 259.784862 109.492658 
L 260.883692 106.415171 
L 261.982523 106.467437 
L 263.081354 104.938078 
L 264.180185 107.884755 
L 266.377846 116.07482 
L 267.476677 117.84687 
L 269.674338 112.313183 
L 270.773169 111.037935 
L 271.872 113.331495 
L 272.970831 112.566736 
L 274.069662 111.170944 
L 276.267323 111.360158 
L 277.366154 113.874147 
L 278.464985 115.555855 
L 279.563815 122.167942 
L 280.662646 120.118455 
L 281.761477 116.201212 
L 282.860308 118.189957 
L 283.959138 115.501431 
L 285.057969 116.576333 
L 286.1568 115.788859 
L 287.255631 115.930585 
L 288.354462 117.577093 
L 289.453292 113.383491 
L 290.552123 113.40343 
L 291.650954 114.894574 
L 292.749785 114.564725 
L 293.848615 113.442575 
L 294.947446 116.442077 
L 296.046277 117.625106 
L 297.145108 121.292078 
L 298.243938 123.178635 
L 299.342769 130.351842 
L 300.4416 133.855164 
L 301.540431 127.929217 
L 302.639262 124.356209 
L 303.738092 123.550949 
L 304.836923 124.232606 
L 305.935754 127.925776 
L 307.034585 130.039794 
L 308.133415 138.704521 
L 309.232246 138.290323 
L 310.331077 142.422063 
L 311.429908 139.340807 
L 312.528738 140.601646 
L 313.627569 148.768342 
L 314.7264 150.309831 
L 315.825231 143.27048 
L 316.924062 138.104059 
L 318.022892 139.13584 
L 319.121723 145.734178 
L 320.220554 149.72346 
L 321.319385 149.43878 
L 322.418215 147.42911 
L 323.517046 142.625932 
L 324.615877 132.3967 
L 325.714708 130.276405 
L 326.813538 129.470489 
L 329.0112 132.927236 
L 330.110031 137.350117 
L 331.208862 139.882856 
L 332.307692 144.39405 
L 333.406523 139.982577 
L 334.505354 137.989205 
L 336.703015 134.7216 
L 337.801846 135.96053 
L 338.900677 134.092125 
L 339.999508 128.268909 
L 341.098338 127.280017 
L 342.197169 127.945646 
L 343.296 128.334008 
L 344.394831 124.645004 
L 346.592492 128.307605 
L 347.691323 128.122436 
L 348.790154 128.247388 
L 349.888985 128.901812 
L 350.987815 132.191825 
L 352.086646 144.723459 
L 353.185477 145.955617 
L 354.284308 143.217249 
L 355.383138 142.253309 
L 356.481969 141.744122 
L 357.5808 144.998562 
L 358.679631 148.778358 
L 359.778462 148.712217 
L 360.877292 154.090363 
L 361.976123 154.516137 
L 363.074954 154.613862 
L 364.173785 151.213167 
L 365.272615 148.803971 
L 366.371446 146.770883 
L 367.470277 149.077118 
L 368.569108 178.113289 
L 369.667938 179.406517 
L 370.766769 180.026182 
L 371.8656 173.819189 
L 372.964431 169.170279 
L 374.063262 157.060048 
L 375.162092 156.16585 
L 376.260923 154.513233 
L 377.359754 150.5116 
L 378.458585 147.838787 
L 379.557415 142.897729 
L 380.656246 135.632463 
L 381.755077 129.532198 
L 382.853908 132.274488 
L 383.952738 125.712325 
L 385.051569 128.034275 
L 386.1504 132.621556 
L 387.249231 133.792157 
L 388.348062 130.160193 
L 389.446892 124.429376 
L 390.545723 120.505223 
L 391.644554 123.85262 
L 392.743385 125.920305 
L 393.842215 127.198324 
L 394.941046 113.539812 
L 396.039877 113.479421 
L 397.138708 118.316642 
L 398.237538 115.663165 
L 399.336369 123.00374 
L 400.4352 122.287255 
L 401.534031 123.168553 
L 402.632862 119.472574 
L 403.731692 116.420116 
L 404.830523 118.666454 
L 405.929354 121.298546 
L 407.028185 118.166006 
L 408.127015 124.894007 
L 409.225846 129.498687 
L 410.324677 127.83832 
L 411.423508 125.23128 
L 412.522338 128.423918 
L 413.621169 128.890005 
L 414.72 130.55748 
L 414.72 130.55748 
" clip-path="url(#p8f704c9367)" style="fill: none; stroke: #4c72b0; stroke-width: 0.75; stroke-linecap: round"/>
   </g>
   <g id="line2d_12">
    <path d="M 57.6 146.732868 
L 61.995323 146.732868 
L 63.094154 131.485823 
L 68.588308 131.485823 
L 69.687138 121.321127 
L 88.367262 121.321127 
L 89.466092 116.238779 
L 94.960246 116.238779 
L 96.059077 126.403475 
L 101.553231 126.403475 
L 102.652062 121.321127 
L 108.146215 121.321127 
L 109.245046 111.156431 
L 114.7392 111.156431 
L 115.838031 116.238779 
L 121.332185 116.238779 
L 122.431015 111.156431 
L 127.925169 111.156431 
L 129.024 116.238779 
L 141.111138 116.238779 
L 142.209969 111.156431 
L 147.704123 111.156431 
L 148.802954 116.238779 
L 220.226954 116.238779 
L 221.325785 111.156431 
L 226.819938 111.156431 
L 227.918769 116.238779 
L 286.1568 116.238779 
L 287.255631 121.321127 
L 289.453292 121.321127 
L 290.552123 116.238779 
L 335.604185 116.238779 
L 336.703015 121.321127 
L 342.197169 121.321127 
L 343.296 116.238779 
L 352.086646 116.238779 
L 353.185477 121.321127 
L 361.976123 121.321127 
L 363.074954 116.238779 
L 408.127015 116.238779 
L 409.225846 111.156431 
L 412.522338 111.156431 
L 412.522338 111.156431 
" clip-path="url(#p8f704c9367)" style="fill: none; stroke: #dd8452; stroke-width: 0.75; stroke-linecap: round"/>
   </g>
   <g id="line2d_13">
    <path d="M 57.6 121.321127 
L 68.588308 121.321127 
L 69.687138 100.991734 
L 75.181292 100.991734 
L 76.280123 121.321127 
L 81.774277 121.321127 
L 82.873108 126.403475 
L 88.367262 126.403475 
L 89.466092 121.321127 
L 101.553231 121.321127 
L 102.652062 126.403475 
L 108.146215 126.403475 
L 109.245046 116.238779 
L 114.7392 116.238779 
L 115.838031 111.156431 
L 127.925169 111.156431 
L 129.024 116.238779 
L 134.518154 116.238779 
L 135.616985 111.156431 
L 141.111138 111.156431 
L 142.209969 116.238779 
L 147.704123 116.238779 
L 148.802954 121.321127 
L 154.297108 121.321127 
L 155.395938 116.238779 
L 160.890092 116.238779 
L 161.988923 121.321127 
L 174.076062 121.321127 
L 175.174892 116.238779 
L 193.855015 116.238779 
L 194.953846 111.156431 
L 200.448 111.156431 
L 201.546831 116.238779 
L 207.040985 116.238779 
L 208.139815 111.156431 
L 266.377846 111.156431 
L 267.476677 116.238779 
L 322.418215 116.238779 
L 323.517046 121.321127 
L 329.0112 121.321127 
L 330.110031 116.238779 
L 335.604185 116.238779 
L 336.703015 121.321127 
L 338.900677 121.321127 
L 339.999508 116.238779 
L 342.197169 116.238779 
L 343.296 121.321127 
L 355.383138 121.321127 
L 356.481969 116.238779 
L 361.976123 116.238779 
L 363.074954 121.321127 
L 365.272615 121.321127 
L 366.371446 116.238779 
L 368.569108 116.238779 
L 369.667938 111.156431 
L 371.8656 111.156431 
L 372.964431 116.238779 
L 375.162092 116.238779 
L 376.260923 111.156431 
L 378.458585 111.156431 
L 379.557415 116.238779 
L 385.051569 116.238779 
L 386.1504 111.156431 
L 388.348062 111.156431 
L 389.446892 106.074082 
L 391.644554 106.074082 
L 392.743385 111.156431 
L 394.941046 111.156431 
L 396.039877 106.074082 
L 404.830523 106.074082 
L 405.929354 116.238779 
L 408.127015 116.238779 
L 409.225846 111.156431 
L 411.423508 111.156431 
L 412.522338 116.238779 
L 412.522338 116.238779 
" clip-path="url(#p8f704c9367)" style="fill: none; stroke: #55a868; stroke-width: 0.75; stroke-linecap: round"/>
   </g>
   <g id="patch_3">
    <path d="M 57.6 186.624 
L 57.6 41.472 
" style="fill: none; stroke: #ffffff; stroke-width: 1.25; stroke-linejoin: miter; stroke-linecap: square"/>
   </g>
   <g id="patch_4">
    <path d="M 414.72 186.624 
L 414.72 41.472 
" style="fill: none; stroke: #ffffff; stroke-width: 1.25; stroke-linejoin: miter; stroke-linecap: square"/>
   </g>
   <g id="patch_5">
    <path d="M 57.6 186.624 
L 414.72 186.624 
" style="fill: none; stroke: #ffffff; stroke-width: 1.25; stroke-linejoin: miter; stroke-linecap: square"/>
   </g>
   <g id="patch_6">
    <path d="M 57.6 41.472 
L 414.72 41.472 
" style="fill: none; stroke: #ffffff; stroke-width: 1.25; stroke-linejoin: miter; stroke-linecap: square"/>
   </g>
   <g id="text_6">
    <!-- Break-Even Inflation, Expectations &amp; Inflation Risk Premia -->
    <g style="fill: #262626" transform="translate(62.847187 35.472) scale(0.12 -0.12)">
     <defs>
      <path id="DejaVuSans-42" d="M 1259 2228 
L 1259 519 
L 2272 519 
Q 2781 519 3026 730 
Q 3272 941 3272 1375 
Q 3272 1813 3026 2020 
Q 2781 2228 2272 2228 
L 1259 2228 
z
M 1259 4147 
L 1259 2741 
L 2194 2741 
Q 2656 2741 2882 2914 
Q 3109 3088 3109 3444 
Q 3109 3797 2882 3972 
Q 2656 4147 2194 4147 
L 1259 4147 
z
M 628 4666 
L 2241 4666 
Q 2963 4666 3353 4366 
Q 3744 4066 3744 3513 
Q 3744 3084 3544 2831 
Q 3344 2578 2956 2516 
Q 3422 2416 3680 2098 
Q 3938 1781 3938 1306 
Q 3938 681 3513 340 
Q 3088 0 2303 0 
L 628 0 
L 628 4666 
z
" transform="scale(0.015625)"/>
      <path id="DejaVuSans-72" d="M 2631 2963 
Q 2534 3019 2420 3045 
Q 2306 3072 2169 3072 
Q 1681 3072 1420 2755 
Q 1159 2438 1159 1844 
L 1159 0 
L 581 0 
L 581 3500 
L 1159 3500 
L 1159 2956 
Q 1341 3275 1631 3429 
Q 1922 3584 2338 3584 
Q 2397 3584 2469 3576 
Q 2541 3569 2628 3553 
L 2631 2963 
z
" transform="scale(0.015625)"/>
      <path id="DejaVuSans-65" d="M 3597 1894 
L 3597 1613 
L 953 1613 
Q 991 1019 1311 708 
Q 1631 397 2203 397 
Q 2534 397 2845 478 
Q 3156 559 3463 722 
L 3463 178 
Q 3153 47 2828 -22 
Q 2503 -91 2169 -91 
Q 1331 -91 842 396 
Q 353 884 353 1716 
Q 353 2575 817 3079 
Q 1281 3584 2069 3584 
Q 2775 3584 3186 3129 
Q 3597 2675 3597 1894 
z
M 3022 2063 
Q 3016 2534 2758 2815 
Q 2500 3097 2075 3097 
Q 1594 3097 1305 2825 
Q 1016 2553 972 2059 
L 3022 2063 
z
" transform="scale(0.015625)"/>
      <path id="DejaVuSans-61" d="M 2194 1759 
Q 1497 1759 1228 1600 
Q 959 1441 959 1056 
Q 959 750 1161 570 
Q 1363 391 1709 391 
Q 2188 391 2477 730 
Q 2766 1069 2766 1631 
L 2766 1759 
L 2194 1759 
z
M 3341 1997 
L 3341 0 
L 2766 0 
L 2766 531 
Q 2569 213 2275 61 
Q 1981 -91 1556 -91 
Q 1019 -91 701 211 
Q 384 513 384 1019 
Q 384 1609 779 1909 
Q 1175 2209 1959 2209 
L 2766 2209 
L 2766 2266 
Q 2766 2663 2505 2880 
Q 2244 3097 1772 3097 
Q 1472 3097 1187 3025 
Q 903 2953 641 2809 
L 641 3341 
Q 956 3463 1253 3523 
Q 1550 3584 1831 3584 
Q 2591 3584 2966 3190 
Q 3341 2797 3341 1997 
z
" transform="scale(0.015625)"/>
      <path id="DejaVuSans-6b" d="M 581 4863 
L 1159 4863 
L 1159 1991 
L 2875 3500 
L 3609 3500 
L 1753 1863 
L 3688 0 
L 2938 0 
L 1159 1709 
L 1159 0 
L 581 0 
L 581 4863 
z
" transform="scale(0.015625)"/>
      <path id="DejaVuSans-2d" d="M 313 2009 
L 1997 2009 
L 1997 1497 
L 313 1497 
L 313 2009 
z
" transform="scale(0.015625)"/>
      <path id="DejaVuSans-45" d="M 628 4666 
L 3578 4666 
L 3578 4134 
L 1259 4134 
L 1259 2753 
L 3481 2753 
L 3481 2222 
L 1259 2222 
L 1259 531 
L 3634 531 
L 3634 0 
L 628 0 
L 628 4666 
z
" transform="scale(0.015625)"/>
      <path id="DejaVuSans-76" d="M 191 3500 
L 800 3500 
L 1894 563 
L 2988 3500 
L 3597 3500 
L 2284 0 
L 1503 0 
L 191 3500 
z
" transform="scale(0.015625)"/>
      <path id="DejaVuSans-6e" d="M 3513 2113 
L 3513 0 
L 2938 0 
L 2938 2094 
Q 2938 2591 2744 2837 
Q 2550 3084 2163 3084 
Q 1697 3084 1428 2787 
Q 1159 2491 1159 1978 
L 1159 0 
L 581 0 
L 581 3500 
L 1159 3500 
L 1159 2956 
Q 1366 3272 1645 3428 
Q 1925 3584 2291 3584 
Q 2894 3584 3203 3211 
Q 3513 2838 3513 2113 
z
" transform="scale(0.015625)"/>
      <path id="DejaVuSans-20" transform="scale(0.015625)"/>
      <path id="DejaVuSans-49" d="M 628 4666 
L 1259 4666 
L 1259 0 
L 628 0 
L 628 4666 
z
" transform="scale(0.015625)"/>
      <path id="DejaVuSans-66" d="M 2375 4863 
L 2375 4384 
L 1825 4384 
Q 1516 4384 1395 4259 
Q 1275 4134 1275 3809 
L 1275 3500 
L 2222 3500 
L 2222 3053 
L 1275 3053 
L 1275 0 
L 697 0 
L 697 3053 
L 147 3053 
L 147 3500 
L 697 3500 
L 697 3744 
Q 697 4328 969 4595 
Q 1241 4863 1831 4863 
L 2375 4863 
z
" transform="scale(0.015625)"/>
      <path id="DejaVuSans-6c" d="M 603 4863 
L 1178 4863 
L 1178 0 
L 603 0 
L 603 4863 
z
" transform="scale(0.015625)"/>
      <path id="DejaVuSans-74" d="M 1172 4494 
L 1172 3500 
L 2356 3500 
L 2356 3053 
L 1172 3053 
L 1172 1153 
Q 1172 725 1289 603 
Q 1406 481 1766 481 
L 2356 481 
L 2356 0 
L 1766 0 
Q 1100 0 847 248 
Q 594 497 594 1153 
L 594 3053 
L 172 3053 
L 172 3500 
L 594 3500 
L 594 4494 
L 1172 4494 
z
" transform="scale(0.015625)"/>
      <path id="DejaVuSans-69" d="M 603 3500 
L 1178 3500 
L 1178 0 
L 603 0 
L 603 3500 
z
M 603 4863 
L 1178 4863 
L 1178 4134 
L 603 4134 
L 603 4863 
z
" transform="scale(0.015625)"/>
      <path id="DejaVuSans-6f" d="M 1959 3097 
Q 1497 3097 1228 2736 
Q 959 2375 959 1747 
Q 959 1119 1226 758 
Q 1494 397 1959 397 
Q 2419 397 2687 759 
Q 2956 1122 2956 1747 
Q 2956 2369 2687 2733 
Q 2419 3097 1959 3097 
z
M 1959 3584 
Q 2709 3584 3137 3096 
Q 3566 2609 3566 1747 
Q 3566 888 3137 398 
Q 2709 -91 1959 -91 
Q 1206 -91 779 398 
Q 353 888 353 1747 
Q 353 2609 779 3096 
Q 1206 3584 1959 3584 
z
" transform="scale(0.015625)"/>
      <path id="DejaVuSans-2c" d="M 750 794 
L 1409 794 
L 1409 256 
L 897 -744 
L 494 -744 
L 750 256 
L 750 794 
z
" transform="scale(0.015625)"/>
      <path id="DejaVuSans-78" d="M 3513 3500 
L 2247 1797 
L 3578 0 
L 2900 0 
L 1881 1375 
L 863 0 
L 184 0 
L 1544 1831 
L 300 3500 
L 978 3500 
L 1906 2253 
L 2834 3500 
L 3513 3500 
z
" transform="scale(0.015625)"/>
      <path id="DejaVuSans-70" d="M 1159 525 
L 1159 -1331 
L 581 -1331 
L 581 3500 
L 1159 3500 
L 1159 2969 
Q 1341 3281 1617 3432 
Q 1894 3584 2278 3584 
Q 2916 3584 3314 3078 
Q 3713 2572 3713 1747 
Q 3713 922 3314 415 
Q 2916 -91 2278 -91 
Q 1894 -91 1617 61 
Q 1341 213 1159 525 
z
M 3116 1747 
Q 3116 2381 2855 2742 
Q 2594 3103 2138 3103 
Q 1681 3103 1420 2742 
Q 1159 2381 1159 1747 
Q 1159 1113 1420 752 
Q 1681 391 2138 391 
Q 2594 391 2855 752 
Q 3116 1113 3116 1747 
z
" transform="scale(0.015625)"/>
      <path id="DejaVuSans-63" d="M 3122 3366 
L 3122 2828 
Q 2878 2963 2633 3030 
Q 2388 3097 2138 3097 
Q 1578 3097 1268 2742 
Q 959 2388 959 1747 
Q 959 1106 1268 751 
Q 1578 397 2138 397 
Q 2388 397 2633 464 
Q 2878 531 3122 666 
L 3122 134 
Q 2881 22 2623 -34 
Q 2366 -91 2075 -91 
Q 1284 -91 818 406 
Q 353 903 353 1747 
Q 353 2603 823 3093 
Q 1294 3584 2113 3584 
Q 2378 3584 2631 3529 
Q 2884 3475 3122 3366 
z
" transform="scale(0.015625)"/>
      <path id="DejaVuSans-73" d="M 2834 3397 
L 2834 2853 
Q 2591 2978 2328 3040 
Q 2066 3103 1784 3103 
Q 1356 3103 1142 2972 
Q 928 2841 928 2578 
Q 928 2378 1081 2264 
Q 1234 2150 1697 2047 
L 1894 2003 
Q 2506 1872 2764 1633 
Q 3022 1394 3022 966 
Q 3022 478 2636 193 
Q 2250 -91 1575 -91 
Q 1294 -91 989 -36 
Q 684 19 347 128 
L 347 722 
Q 666 556 975 473 
Q 1284 391 1588 391 
Q 1994 391 2212 530 
Q 2431 669 2431 922 
Q 2431 1156 2273 1281 
Q 2116 1406 1581 1522 
L 1381 1569 
Q 847 1681 609 1914 
Q 372 2147 372 2553 
Q 372 3047 722 3315 
Q 1072 3584 1716 3584 
Q 2034 3584 2315 3537 
Q 2597 3491 2834 3397 
z
" transform="scale(0.015625)"/>
      <path id="DejaVuSans-26" d="M 1556 2509 
Q 1272 2256 1139 2004 
Q 1006 1753 1006 1478 
Q 1006 1022 1337 719 
Q 1669 416 2169 416 
Q 2466 416 2725 514 
Q 2984 613 3213 813 
L 1556 2509 
z
M 1997 2859 
L 3584 1234 
Q 3769 1513 3872 1830 
Q 3975 2147 3994 2503 
L 4575 2503 
Q 4538 2091 4375 1687 
Q 4213 1284 3922 891 
L 4794 0 
L 4006 0 
L 3559 459 
Q 3234 181 2878 45 
Q 2522 -91 2113 -91 
Q 1359 -91 881 339 
Q 403 769 403 1441 
Q 403 1841 612 2192 
Q 822 2544 1241 2853 
Q 1091 3050 1012 3245 
Q 934 3441 934 3628 
Q 934 4134 1281 4442 
Q 1628 4750 2203 4750 
Q 2463 4750 2720 4694 
Q 2978 4638 3244 4525 
L 3244 3956 
Q 2972 4103 2725 4179 
Q 2478 4256 2266 4256 
Q 1938 4256 1733 4082 
Q 1528 3909 1528 3634 
Q 1528 3475 1620 3314 
Q 1713 3153 1997 2859 
z
" transform="scale(0.015625)"/>
      <path id="DejaVuSans-52" d="M 2841 2188 
Q 3044 2119 3236 1894 
Q 3428 1669 3622 1275 
L 4263 0 
L 3584 0 
L 2988 1197 
Q 2756 1666 2539 1819 
Q 2322 1972 1947 1972 
L 1259 1972 
L 1259 0 
L 628 0 
L 628 4666 
L 2053 4666 
Q 2853 4666 3247 4331 
Q 3641 3997 3641 3322 
Q 3641 2881 3436 2590 
Q 3231 2300 2841 2188 
z
M 1259 4147 
L 1259 2491 
L 2053 2491 
Q 2509 2491 2742 2702 
Q 2975 2913 2975 3322 
Q 2975 3731 2742 3939 
Q 2509 4147 2053 4147 
L 1259 4147 
z
" transform="scale(0.015625)"/>
      <path id="DejaVuSans-50" d="M 1259 4147 
L 1259 2394 
L 2053 2394 
Q 2494 2394 2734 2622 
Q 2975 2850 2975 3272 
Q 2975 3691 2734 3919 
Q 2494 4147 2053 4147 
L 1259 4147 
z
M 628 4666 
L 2053 4666 
Q 2838 4666 3239 4311 
Q 3641 3956 3641 3272 
Q 3641 2581 3239 2228 
Q 2838 1875 2053 1875 
L 1259 1875 
L 1259 0 
L 628 0 
L 628 4666 
z
" transform="scale(0.015625)"/>
      <path id="DejaVuSans-6d" d="M 3328 2828 
Q 3544 3216 3844 3400 
Q 4144 3584 4550 3584 
Q 5097 3584 5394 3201 
Q 5691 2819 5691 2113 
L 5691 0 
L 5113 0 
L 5113 2094 
Q 5113 2597 4934 2840 
Q 4756 3084 4391 3084 
Q 3944 3084 3684 2787 
Q 3425 2491 3425 1978 
L 3425 0 
L 2847 0 
L 2847 2094 
Q 2847 2600 2669 2842 
Q 2491 3084 2119 3084 
Q 1678 3084 1418 2786 
Q 1159 2488 1159 1978 
L 1159 0 
L 581 0 
L 581 3500 
L 1159 3500 
L 1159 2956 
Q 1356 3278 1631 3431 
Q 1906 3584 2284 3584 
Q 2666 3584 2933 3390 
Q 3200 3197 3328 2828 
z
" transform="scale(0.015625)"/>
     </defs>
     <use xlink:href="#DejaVuSans-42"/>
     <use xlink:href="#DejaVuSans-72" x="68.603516"/>
     <use xlink:href="#DejaVuSans-65" x="107.466797"/>
     <use xlink:href="#DejaVuSans-61" x="168.990234"/>
     <use xlink:href="#DejaVuSans-6b" x="230.269531"/>
     <use xlink:href="#DejaVuSans-2d" x="288.179688"/>
     <use xlink:href="#DejaVuSans-45" x="324.263672"/>
     <use xlink:href="#DejaVuSans-76" x="387.447266"/>
     <use xlink:href="#DejaVuSans-65" x="446.626953"/>
     <use xlink:href="#DejaVuSans-6e" x="508.150391"/>
     <use xlink:href="#DejaVuSans-20" x="571.529297"/>
     <use xlink:href="#DejaVuSans-49" x="603.316406"/>
     <use xlink:href="#DejaVuSans-6e" x="632.808594"/>
     <use xlink:href="#DejaVuSans-66" x="696.1875"/>
     <use xlink:href="#DejaVuSans-6c" x="731.392578"/>
     <use xlink:href="#DejaVuSans-61" x="759.175781"/>
     <use xlink:href="#DejaVuSans-74" x="820.455078"/>
     <use xlink:href="#DejaVuSans-69" x="859.664062"/>
     <use xlink:href="#DejaVuSans-6f" x="887.447266"/>
     <use xlink:href="#DejaVuSans-6e" x="948.628906"/>
     <use xlink:href="#DejaVuSans-2c" x="1012.007812"/>
     <use xlink:href="#DejaVuSans-20" x="1043.794922"/>
     <use xlink:href="#DejaVuSans-45" x="1075.582031"/>
     <use xlink:href="#DejaVuSans-78" x="1138.765625"/>
     <use xlink:href="#DejaVuSans-70" x="1197.945312"/>
     <use xlink:href="#DejaVuSans-65" x="1261.421875"/>
     <use xlink:href="#DejaVuSans-63" x="1322.945312"/>
     <use xlink:href="#DejaVuSans-74" x="1377.925781"/>
     <use xlink:href="#DejaVuSans-61" x="1417.134766"/>
     <use xlink:href="#DejaVuSans-74" x="1478.414062"/>
     <use xlink:href="#DejaVuSans-69" x="1517.623047"/>
     <use xlink:href="#DejaVuSans-6f" x="1545.40625"/>
     <use xlink:href="#DejaVuSans-6e" x="1606.587891"/>
     <use xlink:href="#DejaVuSans-73" x="1669.966797"/>
     <use xlink:href="#DejaVuSans-20" x="1722.066406"/>
     <use xlink:href="#DejaVuSans-26" x="1753.853516"/>
     <use xlink:href="#DejaVuSans-20" x="1831.832031"/>
     <use xlink:href="#DejaVuSans-49" x="1863.619141"/>
     <use xlink:href="#DejaVuSans-6e" x="1893.111328"/>
     <use xlink:href="#DejaVuSans-66" x="1956.490234"/>
     <use xlink:href="#DejaVuSans-6c" x="1991.695312"/>
     <use xlink:href="#DejaVuSans-61" x="2019.478516"/>
     <use xlink:href="#DejaVuSans-74" x="2080.757812"/>
     <use xlink:href="#DejaVuSans-69" x="2119.966797"/>
     <use xlink:href="#DejaVuSans-6f" x="2147.75"/>
     <use xlink:href="#DejaVuSans-6e" x="2208.931641"/>
     <use xlink:href="#DejaVuSans-20" x="2272.310547"/>
     <use xlink:href="#DejaVuSans-52" x="2304.097656"/>
     <use xlink:href="#DejaVuSans-69" x="2373.580078"/>
     <use xlink:href="#DejaVuSans-73" x="2401.363281"/>
     <use xlink:href="#DejaVuSans-6b" x="2453.462891"/>
     <use xlink:href="#DejaVuSans-20" x="2511.373047"/>
     <use xlink:href="#DejaVuSans-50" x="2543.160156"/>
     <use xlink:href="#DejaVuSans-72" x="2601.712891"/>
     <use xlink:href="#DejaVuSans-65" x="2640.576172"/>
     <use xlink:href="#DejaVuSans-6d" x="2702.099609"/>
     <use xlink:href="#DejaVuSans-69" x="2799.511719"/>
     <use xlink:href="#DejaVuSans-61" x="2827.294922"/>
    </g>
   </g>
   <g id="legend_1">
    <g id="patch_7">
     <path d="M 278.029531 98.709813 
L 407.02 98.709813 
Q 409.22 98.709813 409.22 96.509813 
L 409.22 49.172 
Q 409.22 46.972 407.02 46.972 
L 278.029531 46.972 
Q 275.829531 46.972 275.829531 49.172 
L 275.829531 96.509813 
Q 275.829531 98.709813 278.029531 98.709813 
z
" style="fill: #e3e3e3; opacity: 0.8; stroke: #cccccc; stroke-linejoin: miter"/>
    </g>
    <g id="line2d_14">
     <path d="M 280.229531 55.880281 
L 291.229531 55.880281 
L 302.229531 55.880281 
" style="fill: none; stroke: #4c72b0; stroke-width: 0.75; stroke-linecap: round"/>
    </g>
    <g id="text_7">
     <!-- BEI -->
     <g style="fill: #262626" transform="translate(311.029531 59.730281) scale(0.11 -0.11)">
      <use xlink:href="#DejaVuSans-42"/>
      <use xlink:href="#DejaVuSans-45" x="68.603516"/>
      <use xlink:href="#DejaVuSans-49" x="131.787109"/>
     </g>
    </g>
    <g id="line2d_15">
     <path d="M 280.229531 72.026219 
L 291.229531 72.026219 
L 302.229531 72.026219 
" style="fill: none; stroke: #dd8452; stroke-width: 0.75; stroke-linecap: round"/>
    </g>
    <g id="text_8">
     <!-- EXP 2-3y ahead -->
     <g style="fill: #262626" transform="translate(311.029531 75.876219) scale(0.11 -0.11)">
      <defs>
       <path id="DejaVuSans-58" d="M 403 4666 
L 1081 4666 
L 2241 2931 
L 3406 4666 
L 4084 4666 
L 2584 2425 
L 4184 0 
L 3506 0 
L 2194 1984 
L 872 0 
L 191 0 
L 1856 2491 
L 403 4666 
z
" transform="scale(0.015625)"/>
       <path id="DejaVuSans-79" d="M 2059 -325 
Q 1816 -950 1584 -1140 
Q 1353 -1331 966 -1331 
L 506 -1331 
L 506 -850 
L 844 -850 
Q 1081 -850 1212 -737 
Q 1344 -625 1503 -206 
L 1606 56 
L 191 3500 
L 800 3500 
L 1894 763 
L 2988 3500 
L 3597 3500 
L 2059 -325 
z
" transform="scale(0.015625)"/>
       <path id="DejaVuSans-68" d="M 3513 2113 
L 3513 0 
L 2938 0 
L 2938 2094 
Q 2938 2591 2744 2837 
Q 2550 3084 2163 3084 
Q 1697 3084 1428 2787 
Q 1159 2491 1159 1978 
L 1159 0 
L 581 0 
L 581 4863 
L 1159 4863 
L 1159 2956 
Q 1366 3272 1645 3428 
Q 1925 3584 2291 3584 
Q 2894 3584 3203 3211 
Q 3513 2838 3513 2113 
z
" transform="scale(0.015625)"/>
       <path id="DejaVuSans-64" d="M 2906 2969 
L 2906 4863 
L 3481 4863 
L 3481 0 
L 2906 0 
L 2906 525 
Q 2725 213 2448 61 
Q 2172 -91 1784 -91 
Q 1150 -91 751 415 
Q 353 922 353 1747 
Q 353 2572 751 3078 
Q 1150 3584 1784 3584 
Q 2172 3584 2448 3432 
Q 2725 3281 2906 2969 
z
M 947 1747 
Q 947 1113 1208 752 
Q 1469 391 1925 391 
Q 2381 391 2643 752 
Q 2906 1113 2906 1747 
Q 2906 2381 2643 2742 
Q 2381 3103 1925 3103 
Q 1469 3103 1208 2742 
Q 947 2381 947 1747 
z
" transform="scale(0.015625)"/>
      </defs>
      <use xlink:href="#DejaVuSans-45"/>
      <use xlink:href="#DejaVuSans-58" x="63.183594"/>
      <use xlink:href="#DejaVuSans-50" x="131.689453"/>
      <use xlink:href="#DejaVuSans-20" x="191.992188"/>
      <use xlink:href="#DejaVuSans-32" x="223.779297"/>
      <use xlink:href="#DejaVuSans-2d" x="287.402344"/>
      <use xlink:href="#DejaVuSans-33" x="323.486328"/>
      <use xlink:href="#DejaVuSans-79" x="387.109375"/>
      <use xlink:href="#DejaVuSans-20" x="446.289062"/>
      <use xlink:href="#DejaVuSans-61" x="478.076172"/>
      <use xlink:href="#DejaVuSans-68" x="539.355469"/>
      <use xlink:href="#DejaVuSans-65" x="602.734375"/>
      <use xlink:href="#DejaVuSans-61" x="664.257812"/>
      <use xlink:href="#DejaVuSans-64" x="725.537109"/>
     </g>
    </g>
    <g id="line2d_16">
     <path d="M 280.229531 88.172156 
L 291.229531 88.172156 
L 302.229531 88.172156 
" style="fill: none; stroke: #55a868; stroke-width: 0.75; stroke-linecap: round"/>
    </g>
    <g id="text_9">
     <!-- EXP 6-10y ahead -->
     <g style="fill: #262626" transform="translate(311.029531 92.022156) scale(0.11 -0.11)">
      <defs>
       <path id="DejaVuSans-36" d="M 2113 2584 
Q 1688 2584 1439 2293 
Q 1191 2003 1191 1497 
Q 1191 994 1439 701 
Q 1688 409 2113 409 
Q 2538 409 2786 701 
Q 3034 994 3034 1497 
Q 3034 2003 2786 2293 
Q 2538 2584 2113 2584 
z
M 3366 4563 
L 3366 3988 
Q 3128 4100 2886 4159 
Q 2644 4219 2406 4219 
Q 1781 4219 1451 3797 
Q 1122 3375 1075 2522 
Q 1259 2794 1537 2939 
Q 1816 3084 2150 3084 
Q 2853 3084 3261 2657 
Q 3669 2231 3669 1497 
Q 3669 778 3244 343 
Q 2819 -91 2113 -91 
Q 1303 -91 875 529 
Q 447 1150 447 2328 
Q 447 3434 972 4092 
Q 1497 4750 2381 4750 
Q 2619 4750 2861 4703 
Q 3103 4656 3366 4563 
z
" transform="scale(0.015625)"/>
      </defs>
      <use xlink:href="#DejaVuSans-45"/>
      <use xlink:href="#DejaVuSans-58" x="63.183594"/>
      <use xlink:href="#DejaVuSans-50" x="131.689453"/>
      <use xlink:href="#DejaVuSans-20" x="191.992188"/>
      <use xlink:href="#DejaVuSans-36" x="223.779297"/>
      <use xlink:href="#DejaVuSans-2d" x="287.402344"/>
      <use xlink:href="#DejaVuSans-31" x="323.486328"/>
      <use xlink:href="#DejaVuSans-30" x="387.109375"/>
      <use xlink:href="#DejaVuSans-79" x="450.732422"/>
      <use xlink:href="#DejaVuSans-20" x="509.912109"/>
      <use xlink:href="#DejaVuSans-61" x="541.699219"/>
      <use xlink:href="#DejaVuSans-68" x="602.978516"/>
      <use xlink:href="#DejaVuSans-65" x="666.357422"/>
      <use xlink:href="#DejaVuSans-61" x="727.880859"/>
      <use xlink:href="#DejaVuSans-64" x="789.160156"/>
     </g>
    </g>
   </g>
  </g>
  <g id="axes_2">
   <g id="patch_8">
    <path d="M 57.6 307.584 
L 414.72 307.584 
L 414.72 210.816 
L 57.6 210.816 
z
" style="fill: #e3e3e3"/>
   </g>
   <g id="matplotlib.axis_3">
    <g id="xtick_28">
     <g id="line2d_17">
      <path d="M 89.466092 307.584 
L 89.466092 210.816 
" clip-path="url(#pb32e4f8394)" style="fill: none; stroke: #ffffff; stroke-linecap: round"/>
     </g>
     <g id="text_10">
      <!-- 1999 -->
      <g style="fill: #262626" transform="translate(75.468592 325.442281) scale(0.11 -0.11)">
       <defs>
        <path id="DejaVuSans-39" d="M 703 97 
L 703 672 
Q 941 559 1184 500 
Q 1428 441 1663 441 
Q 2288 441 2617 861 
Q 2947 1281 2994 2138 
Q 2813 1869 2534 1725 
Q 2256 1581 1919 1581 
Q 1219 1581 811 2004 
Q 403 2428 403 3163 
Q 403 3881 828 4315 
Q 1253 4750 1959 4750 
Q 2769 4750 3195 4129 
Q 3622 3509 3622 2328 
Q 3622 1225 3098 567 
Q 2575 -91 1691 -91 
Q 1453 -91 1209 -44 
Q 966 3 703 97 
z
M 1959 2075 
Q 2384 2075 2632 2365 
Q 2881 2656 2881 3163 
Q 2881 3666 2632 3958 
Q 2384 4250 1959 4250 
Q 1534 4250 1286 3958 
Q 1038 3666 1038 3163 
Q 1038 2656 1286 2365 
Q 1534 2075 1959 2075 
z
" transform="scale(0.015625)"/>
       </defs>
       <use xlink:href="#DejaVuSans-31"/>
       <use xlink:href="#DejaVuSans-39" x="63.623047"/>
       <use xlink:href="#DejaVuSans-39" x="127.246094"/>
       <use xlink:href="#DejaVuSans-39" x="190.869141"/>
      </g>
     </g>
    </g>
    <g id="xtick_29">
     <g id="line2d_18">
      <path d="M 155.395938 307.584 
L 155.395938 210.816 
" clip-path="url(#pb32e4f8394)" style="fill: none; stroke: #ffffff; stroke-linecap: round"/>
     </g>
     <g id="text_11">
      <!-- 2004 -->
      <g style="fill: #262626" transform="translate(141.398438 325.442281) scale(0.11 -0.11)">
       <defs>
        <path id="DejaVuSans-34" d="M 2419 4116 
L 825 1625 
L 2419 1625 
L 2419 4116 
z
M 2253 4666 
L 3047 4666 
L 3047 1625 
L 3713 1625 
L 3713 1100 
L 3047 1100 
L 3047 0 
L 2419 0 
L 2419 1100 
L 313 1100 
L 313 1709 
L 2253 4666 
z
" transform="scale(0.015625)"/>
       </defs>
       <use xlink:href="#DejaVuSans-32"/>
       <use xlink:href="#DejaVuSans-30" x="63.623047"/>
       <use xlink:href="#DejaVuSans-30" x="127.246094"/>
       <use xlink:href="#DejaVuSans-34" x="190.869141"/>
      </g>
     </g>
    </g>
    <g id="xtick_30">
     <g id="line2d_19">
      <path d="M 221.325785 307.584 
L 221.325785 210.816 
" clip-path="url(#pb32e4f8394)" style="fill: none; stroke: #ffffff; stroke-linecap: round"/>
     </g>
     <g id="text_12">
      <!-- 2009 -->
      <g style="fill: #262626" transform="translate(207.328285 325.442281) scale(0.11 -0.11)">
       <use xlink:href="#DejaVuSans-32"/>
       <use xlink:href="#DejaVuSans-30" x="63.623047"/>
       <use xlink:href="#DejaVuSans-30" x="127.246094"/>
       <use xlink:href="#DejaVuSans-39" x="190.869141"/>
      </g>
     </g>
    </g>
    <g id="xtick_31">
     <g id="line2d_20">
      <path d="M 287.255631 307.584 
L 287.255631 210.816 
" clip-path="url(#pb32e4f8394)" style="fill: none; stroke: #ffffff; stroke-linecap: round"/>
     </g>
     <g id="text_13">
      <!-- 2014 -->
      <g style="fill: #262626" transform="translate(273.258131 325.442281) scale(0.11 -0.11)">
       <use xlink:href="#DejaVuSans-32"/>
       <use xlink:href="#DejaVuSans-30" x="63.623047"/>
       <use xlink:href="#DejaVuSans-31" x="127.246094"/>
       <use xlink:href="#DejaVuSans-34" x="190.869141"/>
      </g>
     </g>
    </g>
    <g id="xtick_32">
     <g id="line2d_21">
      <path d="M 353.185477 307.584 
L 353.185477 210.816 
" clip-path="url(#pb32e4f8394)" style="fill: none; stroke: #ffffff; stroke-linecap: round"/>
     </g>
     <g id="text_14">
      <!-- 2019 -->
      <g style="fill: #262626" transform="translate(339.187977 325.442281) scale(0.11 -0.11)">
       <use xlink:href="#DejaVuSans-32"/>
       <use xlink:href="#DejaVuSans-30" x="63.623047"/>
       <use xlink:href="#DejaVuSans-31" x="127.246094"/>
       <use xlink:href="#DejaVuSans-39" x="190.869141"/>
      </g>
     </g>
    </g>
    <g id="xtick_33"/>
    <g id="xtick_34"/>
    <g id="xtick_35"/>
    <g id="xtick_36"/>
    <g id="xtick_37"/>
    <g id="xtick_38"/>
    <g id="xtick_39"/>
    <g id="xtick_40"/>
    <g id="xtick_41"/>
    <g id="xtick_42"/>
    <g id="xtick_43"/>
    <g id="xtick_44"/>
    <g id="xtick_45"/>
    <g id="xtick_46"/>
    <g id="xtick_47"/>
    <g id="xtick_48"/>
    <g id="xtick_49"/>
    <g id="xtick_50"/>
    <g id="xtick_51"/>
    <g id="xtick_52"/>
    <g id="xtick_53"/>
    <g id="xtick_54"/>
   </g>
   <g id="matplotlib.axis_4">
    <g id="ytick_6">
     <g id="line2d_22">
      <path d="M 57.6 293.709419 
L 414.72 293.709419 
" clip-path="url(#pb32e4f8394)" style="fill: none; stroke: #ffffff; stroke-linecap: round"/>
     </g>
     <g id="text_15">
      <!-- −0.01 -->
      <g style="fill: #262626" transform="translate(14.390156 297.88856) scale(0.11 -0.11)">
       <defs>
        <path id="DejaVuSans-2212" d="M 678 2272 
L 4684 2272 
L 4684 1741 
L 678 1741 
L 678 2272 
z
" transform="scale(0.015625)"/>
       </defs>
       <use xlink:href="#DejaVuSans-2212"/>
       <use xlink:href="#DejaVuSans-30" x="83.789062"/>
       <use xlink:href="#DejaVuSans-2e" x="147.412109"/>
       <use xlink:href="#DejaVuSans-30" x="179.199219"/>
       <use xlink:href="#DejaVuSans-31" x="242.822266"/>
      </g>
     </g>
    </g>
    <g id="ytick_7">
     <g id="line2d_23">
      <path d="M 57.6 267.02218 
L 414.72 267.02218 
" clip-path="url(#pb32e4f8394)" style="fill: none; stroke: #ffffff; stroke-linecap: round"/>
     </g>
     <g id="text_16">
      <!-- 0.00 -->
      <g style="fill: #262626" transform="translate(23.607813 271.201321) scale(0.11 -0.11)">
       <use xlink:href="#DejaVuSans-30"/>
       <use xlink:href="#DejaVuSans-2e" x="63.623047"/>
       <use xlink:href="#DejaVuSans-30" x="95.410156"/>
       <use xlink:href="#DejaVuSans-30" x="159.033203"/>
      </g>
     </g>
    </g>
    <g id="ytick_8">
     <g id="line2d_24">
      <path d="M 57.6 240.334941 
L 414.72 240.334941 
" clip-path="url(#pb32e4f8394)" style="fill: none; stroke: #ffffff; stroke-linecap: round"/>
     </g>
     <g id="text_17">
      <!-- 0.01 -->
      <g style="fill: #262626" transform="translate(23.607813 244.514082) scale(0.11 -0.11)">
       <use xlink:href="#DejaVuSans-30"/>
       <use xlink:href="#DejaVuSans-2e" x="63.623047"/>
       <use xlink:href="#DejaVuSans-30" x="95.410156"/>
       <use xlink:href="#DejaVuSans-31" x="159.033203"/>
      </g>
     </g>
    </g>
    <g id="ytick_9">
     <g id="line2d_25">
      <path d="M 57.6 213.647702 
L 414.72 213.647702 
" clip-path="url(#pb32e4f8394)" style="fill: none; stroke: #ffffff; stroke-linecap: round"/>
     </g>
     <g id="text_18">
      <!-- 0.02 -->
      <g style="fill: #262626" transform="translate(23.607813 217.826843) scale(0.11 -0.11)">
       <use xlink:href="#DejaVuSans-30"/>
       <use xlink:href="#DejaVuSans-2e" x="63.623047"/>
       <use xlink:href="#DejaVuSans-30" x="95.410156"/>
       <use xlink:href="#DejaVuSans-32" x="159.033203"/>
      </g>
     </g>
    </g>
   </g>
   <g id="line2d_26">
    <path d="M 57.6 216.344704 
L 58.698831 215.214545 
L 59.797662 217.173966 
L 60.896492 225.025387 
L 61.995323 220.353217 
L 64.192985 226.929112 
L 66.390646 225.805764 
L 67.489477 230.604836 
L 69.687138 246.297729 
L 70.785969 246.778717 
L 71.8848 248.941925 
L 72.983631 252.906887 
L 74.082462 259.755908 
L 75.181292 259.977663 
L 76.280123 267.2106 
L 77.378954 266.96104 
L 78.477785 266.294712 
L 79.576615 265.968622 
L 80.675446 264.211288 
L 81.774277 266.833879 
L 82.873108 266.704755 
L 83.971938 265.013413 
L 85.070769 273.606534 
L 86.1696 275.810611 
L 87.268431 274.745859 
L 88.367262 281.024523 
L 89.466092 281.459001 
L 90.564923 279.759678 
L 91.663754 279.555976 
L 92.762585 284.448375 
L 93.861415 276.753472 
L 96.059077 266.510385 
L 97.157908 259.876277 
L 98.256738 260.094455 
L 99.355569 249.981084 
L 100.4544 251.892347 
L 102.652062 247.296353 
L 103.750892 255.80639 
L 104.849723 259.627419 
L 105.948554 252.957405 
L 107.047385 250.452182 
L 108.146215 256.721417 
L 109.245046 259.895932 
L 110.343877 260.69861 
L 111.442708 255.906674 
L 112.541538 254.976134 
L 113.640369 253.311446 
L 114.7392 253.213507 
L 115.838031 244.087856 
L 116.936862 243.958757 
L 118.035692 247.91441 
L 119.134523 244.59714 
L 120.233354 240.298347 
L 121.332185 241.492831 
L 122.431015 243.095174 
L 123.529846 248.516865 
L 124.628677 247.968783 
L 126.826338 255.264588 
L 129.024 253.240504 
L 130.122831 252.786471 
L 131.221662 245.654434 
L 132.320492 242.895562 
L 133.419323 240.845162 
L 134.518154 240.6316 
L 135.616985 239.331036 
L 136.715815 242.645925 
L 137.814646 244.408099 
L 138.913477 239.254087 
L 140.012308 242.395797 
L 141.111138 249.308146 
L 142.209969 261.907901 
L 144.407631 253.880899 
L 145.506462 255.816009 
L 146.605292 262.964998 
L 147.704123 268.281061 
L 148.802954 261.633046 
L 149.901785 259.062388 
L 151.000615 259.637192 
L 152.099446 257.121513 
L 153.198277 254.95859 
L 154.297108 254.704781 
L 155.395938 251.692611 
L 157.5936 250.967578 
L 158.692431 244.234999 
L 159.791262 240.315422 
L 160.890092 238.658798 
L 161.988923 239.97961 
L 163.087754 240.279956 
L 164.186585 244.730678 
L 165.285415 245.743547 
L 167.483077 246.261087 
L 168.581908 245.713771 
L 169.680738 247.533037 
L 170.779569 247.210182 
L 171.8784 247.530948 
L 172.977231 248.679896 
L 174.076062 253.838407 
L 175.174892 255.354021 
L 176.273723 254.617672 
L 177.372554 252.727453 
L 178.471385 248.954287 
L 179.570215 248.911487 
L 180.669046 250.473569 
L 181.767877 248.767763 
L 182.866708 245.92163 
L 183.965538 247.979536 
L 185.064369 245.614132 
L 186.1632 246.2257 
L 187.262031 248.233974 
L 188.360862 247.583301 
L 189.459692 248.581584 
L 190.558523 253.332097 
L 191.657354 254.339946 
L 192.756185 254.619817 
L 193.855015 255.588917 
L 194.953846 255.496821 
L 196.052677 255.72652 
L 197.151508 255.587609 
L 198.250338 253.62918 
L 199.349169 255.362689 
L 200.448 255.033757 
L 201.546831 255.643426 
L 202.645662 256.780697 
L 203.744492 257.399293 
L 204.843323 256.687479 
L 205.942154 260.337465 
L 207.040985 262.043252 
L 208.139815 261.363095 
L 209.238646 261.229703 
L 212.535138 254.65241 
L 213.633969 250.351402 
L 214.7328 249.97346 
L 215.831631 253.023604 
L 216.930462 260.263103 
L 218.029292 270.273138 
L 219.128123 276.663941 
L 220.226954 285.044486 
L 221.325785 284.696572 
L 222.424615 280.959845 
L 223.523446 280.236855 
L 224.622277 275.748502 
L 225.721108 273.581551 
L 226.819938 267.724228 
L 227.918769 264.332275 
L 229.0176 261.481326 
L 230.116431 262.615304 
L 231.215262 258.809102 
L 232.314092 257.353322 
L 233.412923 252.913002 
L 234.511754 251.602155 
L 235.610585 253.322775 
L 236.709415 252.921415 
L 237.808246 251.218575 
L 238.907077 256.217549 
L 240.005908 258.919908 
L 241.104738 260.65906 
L 242.203569 262.038904 
L 243.3024 261.275079 
L 244.401231 260.066256 
L 246.598892 255.332233 
L 247.697723 254.804971 
L 248.796554 255.314773 
L 250.994215 247.83056 
L 252.093046 250.311155 
L 253.191877 255.466549 
L 254.290708 253.402942 
L 255.389538 258.140466 
L 256.488369 264.61413 
L 258.686031 262.379364 
L 259.784862 263.479815 
L 260.883692 261.863837 
L 261.982523 261.891282 
L 263.081354 261.088221 
L 264.180185 262.63551 
L 266.377846 266.936086 
L 267.476677 267.866584 
L 269.674338 264.960863 
L 270.773169 264.291235 
L 271.872 265.495575 
L 272.970831 265.094003 
L 274.069662 264.361077 
L 276.267323 264.460433 
L 277.366154 265.78052 
L 278.464985 266.663579 
L 279.563815 270.135564 
L 280.662646 269.059385 
L 281.761477 267.002454 
L 282.860308 268.046738 
L 283.959138 266.635001 
L 285.057969 267.199429 
L 286.1568 266.785929 
L 287.255631 264.191625 
L 288.354462 265.056201 
L 289.453292 262.854155 
L 290.552123 265.533348 
L 291.650954 266.316343 
L 292.749785 266.143141 
L 293.848615 265.553903 
L 294.947446 267.128931 
L 296.046277 267.750136 
L 297.145108 269.675651 
L 298.243938 270.666275 
L 299.342769 274.432902 
L 300.4416 276.272485 
L 301.540431 273.16079 
L 302.639262 271.284615 
L 303.738092 270.861776 
L 304.836923 271.219712 
L 305.935754 273.158983 
L 307.034585 274.269047 
L 308.133415 278.818866 
L 309.232246 278.601372 
L 310.331077 280.770935 
L 311.429908 279.152978 
L 312.528738 279.81504 
L 313.627569 284.103344 
L 314.7264 284.912775 
L 315.825231 281.216436 
L 316.924062 278.503565 
L 318.022892 279.04535 
L 319.121723 282.510115 
L 320.220554 284.604874 
L 321.319385 284.455389 
L 322.418215 283.400118 
L 323.517046 280.877986 
L 324.615877 275.50665 
L 325.714708 274.39329 
L 326.813538 273.970107 
L 329.0112 275.785233 
L 330.110031 278.107673 
L 331.208862 279.437606 
L 332.307692 281.806418 
L 333.406523 279.489969 
L 334.505354 278.443256 
L 335.604185 277.589252 
L 336.703015 274.058724 
L 337.801846 274.709281 
L 338.900677 273.728188 
L 339.999508 270.670437 
L 341.098338 270.151173 
L 342.197169 270.500693 
L 343.296 273.373344 
L 344.394831 271.436261 
L 346.592492 273.35948 
L 347.691323 273.262248 
L 348.790154 273.327861 
L 349.888985 273.671496 
L 350.987815 275.399071 
L 352.086646 281.97939 
L 353.185477 279.957668 
L 354.284308 278.51976 
L 355.383138 278.013598 
L 356.481969 277.746226 
L 357.5808 279.455122 
L 358.679631 281.43988 
L 359.778462 281.405149 
L 360.877292 284.229196 
L 361.976123 284.452768 
L 363.074954 287.172807 
L 364.173785 285.387114 
L 365.272615 284.122053 
L 366.371446 283.054485 
L 367.470277 284.265482 
L 368.569108 299.512277 
L 369.667938 300.191347 
L 370.766769 300.516731 
L 371.8656 297.257459 
L 372.964431 294.816333 
L 374.063262 288.457291 
L 375.162092 287.987751 
L 376.260923 287.119967 
L 377.359754 285.018723 
L 378.458585 283.615238 
L 379.557415 281.020705 
L 380.656246 277.205739 
L 381.755077 274.00251 
L 382.853908 275.442477 
L 383.952738 271.996708 
L 385.051569 273.215955 
L 386.1504 275.624722 
L 387.249231 276.2394 
L 388.348062 274.332268 
L 389.446892 271.323035 
L 390.545723 269.262476 
L 391.644554 271.020182 
L 392.743385 272.105917 
L 393.842215 272.777 
L 394.941046 265.604962 
L 396.039877 265.573251 
L 397.138708 268.113259 
L 398.237538 266.719928 
L 399.336369 270.574439 
L 400.4352 270.198215 
L 401.534031 270.660982 
L 402.632862 268.720235 
L 403.731692 267.1174 
L 404.830523 268.296944 
L 405.929354 269.679047 
L 407.028185 268.034161 
L 408.127015 271.567011 
L 409.225846 276.653638 
L 410.324677 275.781784 
L 411.423508 274.412836 
L 412.522338 276.08928 
L 412.522338 276.08928 
" clip-path="url(#pb32e4f8394)" style="fill: none; stroke: #17becf; stroke-width: 0.75; stroke-linecap: round"/>
   </g>
   <g id="line2d_27">
    <path d="M 57.6 229.688324 
L 58.698831 228.558165 
L 59.797662 230.517586 
L 60.896492 238.369006 
L 63.094154 228.905723 
L 64.192985 232.26656 
L 66.390646 231.143212 
L 67.489477 235.942284 
L 68.588308 243.741479 
L 69.687138 256.972625 
L 70.785969 257.453612 
L 71.8848 259.61682 
L 72.983631 263.581783 
L 74.082462 270.430804 
L 75.181292 270.652559 
L 76.280123 267.2106 
L 77.378954 266.96104 
L 78.477785 266.294712 
L 79.576615 265.968622 
L 80.675446 264.211288 
L 81.774277 266.833879 
L 82.873108 264.036031 
L 83.971938 262.344689 
L 85.070769 270.93781 
L 86.1696 273.141887 
L 87.268431 272.077136 
L 88.367262 278.355799 
L 89.466092 278.790277 
L 90.564923 277.090954 
L 91.663754 276.887252 
L 92.762585 281.779651 
L 93.861415 274.084748 
L 94.960246 268.887646 
L 96.059077 269.179109 
L 97.157908 262.545001 
L 98.256738 262.763179 
L 99.355569 252.649808 
L 100.4544 254.561071 
L 101.553231 252.239172 
L 102.652062 244.627629 
L 103.750892 253.137667 
L 104.849723 256.958695 
L 105.948554 250.288681 
L 107.047385 247.783458 
L 108.146215 254.052693 
L 109.245046 257.227208 
L 110.343877 258.029886 
L 111.442708 253.23795 
L 112.541538 252.30741 
L 113.640369 250.642722 
L 114.7392 250.544783 
L 115.838031 246.75658 
L 116.936862 246.627481 
L 118.035692 250.583134 
L 119.134523 247.265864 
L 120.233354 242.967071 
L 121.332185 244.161555 
L 122.431015 243.095174 
L 123.529846 248.516865 
L 124.628677 247.968783 
L 126.826338 255.264588 
L 129.024 253.240504 
L 130.122831 252.786471 
L 131.221662 245.654434 
L 132.320492 242.895562 
L 133.419323 240.845162 
L 134.518154 240.6316 
L 135.616985 241.99976 
L 136.715815 245.314649 
L 137.814646 247.076823 
L 138.913477 241.92281 
L 140.012308 245.064521 
L 142.209969 259.239177 
L 144.407631 251.212175 
L 145.506462 253.147285 
L 146.605292 260.296274 
L 147.704123 265.612337 
L 148.802954 258.964322 
L 149.901785 256.393664 
L 151.000615 256.968468 
L 152.099446 254.45279 
L 153.198277 252.289866 
L 155.395938 251.692611 
L 157.5936 250.967578 
L 158.692431 244.234999 
L 159.791262 240.315422 
L 160.890092 238.658798 
L 161.988923 237.310886 
L 163.087754 237.611232 
L 164.186585 242.061954 
L 165.285415 243.074823 
L 167.483077 243.592363 
L 168.581908 243.045047 
L 169.680738 244.864313 
L 170.779569 244.541458 
L 171.8784 244.862224 
L 172.977231 246.011172 
L 174.076062 251.169683 
L 175.174892 255.354021 
L 176.273723 254.617672 
L 177.372554 252.727453 
L 178.471385 248.954287 
L 179.570215 248.911487 
L 180.669046 250.473569 
L 181.767877 248.767763 
L 182.866708 245.92163 
L 183.965538 247.979536 
L 185.064369 245.614132 
L 186.1632 246.2257 
L 187.262031 248.233974 
L 188.360862 247.583301 
L 189.459692 248.581584 
L 190.558523 253.332097 
L 191.657354 254.339946 
L 192.756185 254.619817 
L 193.855015 255.588917 
L 194.953846 258.165544 
L 196.052677 258.395244 
L 197.151508 258.256333 
L 198.250338 256.297904 
L 199.349169 258.031413 
L 200.448 257.70248 
L 201.546831 255.643426 
L 202.645662 256.780697 
L 203.744492 257.399293 
L 204.843323 256.687479 
L 205.942154 260.337465 
L 207.040985 262.043252 
L 208.139815 264.031819 
L 209.238646 263.898426 
L 212.535138 257.321133 
L 213.633969 253.020126 
L 214.7328 252.642184 
L 215.831631 255.692328 
L 216.930462 262.931827 
L 218.029292 272.941862 
L 219.128123 279.332665 
L 220.226954 287.71321 
L 221.325785 284.696572 
L 222.424615 280.959845 
L 223.523446 280.236855 
L 224.622277 275.748502 
L 225.721108 273.581551 
L 226.819938 267.724228 
L 227.918769 267.000999 
L 229.0176 264.15005 
L 230.116431 265.284028 
L 231.215262 261.477826 
L 232.314092 260.022046 
L 233.412923 255.581726 
L 234.511754 254.270879 
L 235.610585 255.991499 
L 236.709415 255.590139 
L 237.808246 253.887299 
L 238.907077 258.886273 
L 240.005908 261.588632 
L 241.104738 263.327784 
L 242.203569 264.707628 
L 243.3024 263.943803 
L 244.401231 262.73498 
L 246.598892 258.000957 
L 247.697723 257.473695 
L 248.796554 257.983497 
L 250.994215 250.499284 
L 252.093046 252.979879 
L 253.191877 258.135273 
L 254.290708 256.071666 
L 255.389538 260.80919 
L 256.488369 267.282854 
L 258.686031 265.048088 
L 259.784862 266.148539 
L 260.883692 264.532561 
L 261.982523 264.560006 
L 263.081354 263.756944 
L 264.180185 265.304234 
L 266.377846 269.60481 
L 267.476677 267.866584 
L 269.674338 264.960863 
L 270.773169 264.291235 
L 271.872 265.495575 
L 272.970831 265.094003 
L 274.069662 264.361077 
L 276.267323 264.460433 
L 277.366154 265.78052 
L 278.464985 266.663579 
L 279.563815 270.135564 
L 280.662646 269.059385 
L 281.761477 267.002454 
L 282.860308 268.046738 
L 283.959138 266.635001 
L 285.057969 267.199429 
L 286.1568 266.785929 
L 287.255631 266.860349 
L 288.354462 267.724925 
L 289.453292 265.522878 
L 290.552123 265.533348 
L 291.650954 266.316343 
L 292.749785 266.143141 
L 293.848615 265.553903 
L 294.947446 267.128931 
L 296.046277 267.750136 
L 297.145108 269.675651 
L 298.243938 270.666275 
L 299.342769 274.432902 
L 300.4416 276.272485 
L 301.540431 273.16079 
L 302.639262 271.284615 
L 303.738092 270.861776 
L 304.836923 271.219712 
L 305.935754 273.158983 
L 307.034585 274.269047 
L 308.133415 278.818866 
L 309.232246 278.601372 
L 310.331077 280.770935 
L 311.429908 279.152978 
L 312.528738 279.81504 
L 313.627569 284.103344 
L 314.7264 284.912775 
L 315.825231 281.216436 
L 316.924062 278.503565 
L 318.022892 279.04535 
L 319.121723 282.510115 
L 320.220554 284.604874 
L 321.319385 284.455389 
L 322.418215 283.400118 
L 324.615877 272.837927 
L 325.714708 271.724567 
L 326.813538 271.301383 
L 329.0112 273.116509 
L 330.110031 278.107673 
L 331.208862 279.437606 
L 332.307692 281.806418 
L 333.406523 279.489969 
L 334.505354 278.443256 
L 335.604185 277.589252 
L 336.703015 274.058724 
L 337.801846 274.709281 
L 338.900677 273.728188 
L 339.999508 273.339161 
L 341.098338 272.819897 
L 342.197169 273.169417 
L 343.296 270.70462 
L 344.394831 268.767537 
L 346.592492 270.690757 
L 347.691323 270.593525 
L 348.790154 270.659137 
L 349.888985 271.002772 
L 350.987815 272.730347 
L 352.086646 279.310666 
L 353.185477 279.957668 
L 354.284308 278.51976 
L 355.383138 278.013598 
L 356.481969 280.41495 
L 357.5808 282.123845 
L 358.679631 284.108604 
L 359.778462 284.073873 
L 360.877292 286.89792 
L 361.976123 287.121492 
L 363.074954 284.504083 
L 364.173785 282.71839 
L 365.272615 281.453329 
L 366.371446 283.054485 
L 367.470277 284.265482 
L 368.569108 299.512277 
L 369.667938 302.860071 
L 370.766769 303.185455 
L 371.8656 299.926183 
L 372.964431 294.816333 
L 374.063262 288.457291 
L 375.162092 287.987751 
L 376.260923 289.788691 
L 377.359754 287.687447 
L 378.458585 286.283962 
L 379.557415 281.020705 
L 380.656246 277.205739 
L 381.755077 274.00251 
L 382.853908 275.442477 
L 383.952738 271.996708 
L 385.051569 273.215955 
L 386.1504 278.293446 
L 387.249231 278.908124 
L 388.348062 277.000992 
L 389.446892 276.660483 
L 390.545723 274.599924 
L 391.644554 276.35763 
L 392.743385 274.774641 
L 393.842215 275.445724 
L 394.941046 268.273686 
L 397.138708 273.450707 
L 398.237538 272.057375 
L 399.336369 275.911887 
L 400.4352 275.535663 
L 401.534031 275.998429 
L 402.632862 274.057683 
L 403.731692 272.454848 
L 404.830523 273.634392 
L 405.929354 269.679047 
L 407.028185 268.034161 
L 408.127015 271.567011 
L 409.225846 276.653638 
L 410.324677 275.781784 
L 411.423508 274.412836 
L 412.522338 273.420556 
L 412.522338 273.420556 
" clip-path="url(#pb32e4f8394)" style="fill: none; stroke: #e377c2; stroke-width: 0.75; stroke-linecap: round"/>
   </g>
   <g id="line2d_28">
    <path d="M 57.6 267.02218 
L 414.72 267.02218 
" clip-path="url(#pb32e4f8394)" style="fill: none; stroke-dasharray: 1.85,0.8; stroke-dashoffset: 0; stroke: #000000; stroke-width: 0.5"/>
   </g>
   <g id="patch_9">
    <path d="M 57.6 307.584 
L 57.6 210.816 
" style="fill: none; stroke: #ffffff; stroke-width: 1.25; stroke-linejoin: miter; stroke-linecap: square"/>
   </g>
   <g id="patch_10">
    <path d="M 414.72 307.584 
L 414.72 210.816 
" style="fill: none; stroke: #ffffff; stroke-width: 1.25; stroke-linejoin: miter; stroke-linecap: square"/>
   </g>
   <g id="patch_11">
    <path d="M 57.6 307.584 
L 414.72 307.584 
" style="fill: none; stroke: #ffffff; stroke-width: 1.25; stroke-linejoin: miter; stroke-linecap: square"/>
   </g>
   <g id="patch_12">
    <path d="M 57.6 210.816 
L 414.72 210.816 
" style="fill: none; stroke: #ffffff; stroke-width: 1.25; stroke-linejoin: miter; stroke-linecap: square"/>
   </g>
   <g id="legend_2">
    <g id="patch_13">
     <path d="M 281.626875 251.907875 
L 407.02 251.907875 
Q 409.22 251.907875 409.22 249.707875 
L 409.22 218.516 
Q 409.22 216.316 407.02 216.316 
L 281.626875 216.316 
Q 279.426875 216.316 279.426875 218.516 
L 279.426875 249.707875 
Q 279.426875 251.907875 281.626875 251.907875 
z
" style="fill: #e3e3e3; opacity: 0.8; stroke: #cccccc; stroke-linejoin: miter"/>
    </g>
    <g id="line2d_29">
     <path d="M 283.826875 225.224281 
L 294.826875 225.224281 
L 305.826875 225.224281 
" style="fill: none; stroke: #17becf; stroke-width: 0.75; stroke-linecap: round"/>
    </g>
    <g id="text_19">
     <!-- IRP 2-3y ahead -->
     <g style="fill: #262626" transform="translate(314.626875 229.074281) scale(0.11 -0.11)">
      <use xlink:href="#DejaVuSans-49"/>
      <use xlink:href="#DejaVuSans-52" x="29.492188"/>
      <use xlink:href="#DejaVuSans-50" x="98.974609"/>
      <use xlink:href="#DejaVuSans-20" x="159.277344"/>
      <use xlink:href="#DejaVuSans-32" x="191.064453"/>
      <use xlink:href="#DejaVuSans-2d" x="254.6875"/>
      <use xlink:href="#DejaVuSans-33" x="290.771484"/>
      <use xlink:href="#DejaVuSans-79" x="354.394531"/>
      <use xlink:href="#DejaVuSans-20" x="413.574219"/>
      <use xlink:href="#DejaVuSans-61" x="445.361328"/>
      <use xlink:href="#DejaVuSans-68" x="506.640625"/>
      <use xlink:href="#DejaVuSans-65" x="570.019531"/>
      <use xlink:href="#DejaVuSans-61" x="631.542969"/>
      <use xlink:href="#DejaVuSans-64" x="692.822266"/>
     </g>
    </g>
    <g id="line2d_30">
     <path d="M 283.826875 241.370219 
L 294.826875 241.370219 
L 305.826875 241.370219 
" style="fill: none; stroke: #e377c2; stroke-width: 0.75; stroke-linecap: round"/>
    </g>
    <g id="text_20">
     <!-- IRP 6-10y ahead -->
     <g style="fill: #262626" transform="translate(314.626875 245.220219) scale(0.11 -0.11)">
      <use xlink:href="#DejaVuSans-49"/>
      <use xlink:href="#DejaVuSans-52" x="29.492188"/>
      <use xlink:href="#DejaVuSans-50" x="98.974609"/>
      <use xlink:href="#DejaVuSans-20" x="159.277344"/>
      <use xlink:href="#DejaVuSans-36" x="191.064453"/>
      <use xlink:href="#DejaVuSans-2d" x="254.6875"/>
      <use xlink:href="#DejaVuSans-31" x="290.771484"/>
      <use xlink:href="#DejaVuSans-30" x="354.394531"/>
      <use xlink:href="#DejaVuSans-79" x="418.017578"/>
      <use xlink:href="#DejaVuSans-20" x="477.197266"/>
      <use xlink:href="#DejaVuSans-61" x="508.984375"/>
      <use xlink:href="#DejaVuSans-68" x="570.263672"/>
      <use xlink:href="#DejaVuSans-65" x="633.642578"/>
      <use xlink:href="#DejaVuSans-61" x="695.166016"/>
      <use xlink:href="#DejaVuSans-64" x="756.445312"/>
     </g>
    </g>
   </g>
  </g>
 </g>
 <defs>
  <clipPath id="p8f704c9367">
   <rect x="57.6" y="41.472" width="357.12" height="145.152"/>
  </clipPath>
  <clipPath id="pb32e4f8394">
   <rect x="57.6" y="210.816" width="357.12" height="96.768"/>
  </clipPath>
 </defs>
</svg>
