<?xml version="1.0" encoding="utf-8" standalone="no"?>
<!DOCTYPE svg PUBLIC "-//W3C//DTD SVG 1.1//EN"
  "http://www.w3.org/Graphics/SVG/1.1/DTD/svg11.dtd">
<svg xmlns:xlink="http://www.w3.org/1999/xlink" width="460.8pt" height="345.6pt" viewBox="0 0 460.8 345.6" xmlns="http://www.w3.org/2000/svg" version="1.1">
 <metadata>
  <rdf:RDF xmlns:dc="http://purl.org/dc/elements/1.1/" xmlns:cc="http://creativecommons.org/ns#" xmlns:rdf="http://www.w3.org/1999/02/22-rdf-syntax-ns#">
   <cc:Work>
    <dc:type rdf:resource="http://purl.org/dc/dcmitype/StillImage"/>
    <dc:date>2023-12-11T15:12:09.376997</dc:date>
    <dc:format>image/svg+xml</dc:format>
    <dc:creator>
     <cc:Agent>
      <dc:title>Matplotlib v3.8.2, https://matplotlib.org/</dc:title>
     </cc:Agent>
    </dc:creator>
   </cc:Work>
  </rdf:RDF>
 </metadata>
 <defs>
  <style type="text/css">*{stroke-linejoin: round; stroke-linecap: butt}</style>
 </defs>
 <g id="figure_1">
  <g id="patch_1">
   <path d="M 0 345.6 
L 460.8 345.6 
L 460.8 0 
L 0 0 
z
" style="fill: #ffffff"/>
  </g>
  <g id="axes_1">
   <g id="patch_2">
    <path d="M 57.6 307.584 
L 414.72 307.584 
L 414.72 41.472 
L 57.6 41.472 
z
" style="fill: #e3e3e3"/>
   </g>
   <g id="matplotlib.axis_1">
    <g id="xtick_1">
     <g id="line2d_1">
      <path d="M 89.466092 307.584 
L 89.466092 41.472 
" clip-path="url(#p7610bc6145)" style="fill: none; stroke: #ffffff; stroke-linecap: round"/>
     </g>
     <g id="text_1">
      <!-- 1999 -->
      <g style="fill: #262626" transform="translate(75.468592 325.442281) scale(0.11 -0.11)">
       <defs>
        <path id="DejaVuSans-31" d="M 794 531 
L 1825 531 
L 1825 4091 
L 703 3866 
L 703 4441 
L 1819 4666 
L 2450 4666 
L 2450 531 
L 3481 531 
L 3481 0 
L 794 0 
L 794 531 
z
" transform="scale(0.015625)"/>
        <path id="DejaVuSans-39" d="M 703 97 
L 703 672 
Q 941 559 1184 500 
Q 1428 441 1663 441 
Q 2288 441 2617 861 
Q 2947 1281 2994 2138 
Q 2813 1869 2534 1725 
Q 2256 1581 1919 1581 
Q 1219 1581 811 2004 
Q 403 2428 403 3163 
Q 403 3881 828 4315 
Q 1253 4750 1959 4750 
Q 2769 4750 3195 4129 
Q 3622 3509 3622 2328 
Q 3622 1225 3098 567 
Q 2575 -91 1691 -91 
Q 1453 -91 1209 -44 
Q 966 3 703 97 
z
M 1959 2075 
Q 2384 2075 2632 2365 
Q 2881 2656 2881 3163 
Q 2881 3666 2632 3958 
Q 2384 4250 1959 4250 
Q 1534 4250 1286 3958 
Q 1038 3666 1038 3163 
Q 1038 2656 1286 2365 
Q 1534 2075 1959 2075 
z
" transform="scale(0.015625)"/>
       </defs>
       <use xlink:href="#DejaVuSans-31"/>
       <use xlink:href="#DejaVuSans-39" x="63.623047"/>
       <use xlink:href="#DejaVuSans-39" x="127.246094"/>
       <use xlink:href="#DejaVuSans-39" x="190.869141"/>
      </g>
     </g>
    </g>
    <g id="xtick_2">
     <g id="line2d_2">
      <path d="M 155.395938 307.584 
L 155.395938 41.472 
" clip-path="url(#p7610bc6145)" style="fill: none; stroke: #ffffff; stroke-linecap: round"/>
     </g>
     <g id="text_2">
      <!-- 2004 -->
      <g style="fill: #262626" transform="translate(141.398438 325.442281) scale(0.11 -0.11)">
       <defs>
        <path id="DejaVuSans-32" d="M 1228 531 
L 3431 531 
L 3431 0 
L 469 0 
L 469 531 
Q 828 903 1448 1529 
Q 2069 2156 2228 2338 
Q 2531 2678 2651 2914 
Q 2772 3150 2772 3378 
Q 2772 3750 2511 3984 
Q 2250 4219 1831 4219 
Q 1534 4219 1204 4116 
Q 875 4013 500 3803 
L 500 4441 
Q 881 4594 1212 4672 
Q 1544 4750 1819 4750 
Q 2544 4750 2975 4387 
Q 3406 4025 3406 3419 
Q 3406 3131 3298 2873 
Q 3191 2616 2906 2266 
Q 2828 2175 2409 1742 
Q 1991 1309 1228 531 
z
" transform="scale(0.015625)"/>
        <path id="DejaVuSans-30" d="M 2034 4250 
Q 1547 4250 1301 3770 
Q 1056 3291 1056 2328 
Q 1056 1369 1301 889 
Q 1547 409 2034 409 
Q 2525 409 2770 889 
Q 3016 1369 3016 2328 
Q 3016 3291 2770 3770 
Q 2525 4250 2034 4250 
z
M 2034 4750 
Q 2819 4750 3233 4129 
Q 3647 3509 3647 2328 
Q 3647 1150 3233 529 
Q 2819 -91 2034 -91 
Q 1250 -91 836 529 
Q 422 1150 422 2328 
Q 422 3509 836 4129 
Q 1250 4750 2034 4750 
z
" transform="scale(0.015625)"/>
        <path id="DejaVuSans-34" d="M 2419 4116 
L 825 1625 
L 2419 1625 
L 2419 4116 
z
M 2253 4666 
L 3047 4666 
L 3047 1625 
L 3713 1625 
L 3713 1100 
L 3047 1100 
L 3047 0 
L 2419 0 
L 2419 1100 
L 313 1100 
L 313 1709 
L 2253 4666 
z
" transform="scale(0.015625)"/>
       </defs>
       <use xlink:href="#DejaVuSans-32"/>
       <use xlink:href="#DejaVuSans-30" x="63.623047"/>
       <use xlink:href="#DejaVuSans-30" x="127.246094"/>
       <use xlink:href="#DejaVuSans-34" x="190.869141"/>
      </g>
     </g>
    </g>
    <g id="xtick_3">
     <g id="line2d_3">
      <path d="M 221.325785 307.584 
L 221.325785 41.472 
" clip-path="url(#p7610bc6145)" style="fill: none; stroke: #ffffff; stroke-linecap: round"/>
     </g>
     <g id="text_3">
      <!-- 2009 -->
      <g style="fill: #262626" transform="translate(207.328285 325.442281) scale(0.11 -0.11)">
       <use xlink:href="#DejaVuSans-32"/>
       <use xlink:href="#DejaVuSans-30" x="63.623047"/>
       <use xlink:href="#DejaVuSans-30" x="127.246094"/>
       <use xlink:href="#DejaVuSans-39" x="190.869141"/>
      </g>
     </g>
    </g>
    <g id="xtick_4">
     <g id="line2d_4">
      <path d="M 287.255631 307.584 
L 287.255631 41.472 
" clip-path="url(#p7610bc6145)" style="fill: none; stroke: #ffffff; stroke-linecap: round"/>
     </g>
     <g id="text_4">
      <!-- 2014 -->
      <g style="fill: #262626" transform="translate(273.258131 325.442281) scale(0.11 -0.11)">
       <use xlink:href="#DejaVuSans-32"/>
       <use xlink:href="#DejaVuSans-30" x="63.623047"/>
       <use xlink:href="#DejaVuSans-31" x="127.246094"/>
       <use xlink:href="#DejaVuSans-34" x="190.869141"/>
      </g>
     </g>
    </g>
    <g id="xtick_5">
     <g id="line2d_5">
      <path d="M 353.185477 307.584 
L 353.185477 41.472 
" clip-path="url(#p7610bc6145)" style="fill: none; stroke: #ffffff; stroke-linecap: round"/>
     </g>
     <g id="text_5">
      <!-- 2019 -->
      <g style="fill: #262626" transform="translate(339.187977 325.442281) scale(0.11 -0.11)">
       <use xlink:href="#DejaVuSans-32"/>
       <use xlink:href="#DejaVuSans-30" x="63.623047"/>
       <use xlink:href="#DejaVuSans-31" x="127.246094"/>
       <use xlink:href="#DejaVuSans-39" x="190.869141"/>
      </g>
     </g>
    </g>
    <g id="xtick_6"/>
    <g id="xtick_7"/>
    <g id="xtick_8"/>
    <g id="xtick_9"/>
    <g id="xtick_10"/>
    <g id="xtick_11"/>
    <g id="xtick_12"/>
    <g id="xtick_13"/>
    <g id="xtick_14"/>
    <g id="xtick_15"/>
    <g id="xtick_16"/>
    <g id="xtick_17"/>
    <g id="xtick_18"/>
    <g id="xtick_19"/>
    <g id="xtick_20"/>
    <g id="xtick_21"/>
    <g id="xtick_22"/>
    <g id="xtick_23"/>
    <g id="xtick_24"/>
    <g id="xtick_25"/>
    <g id="xtick_26"/>
    <g id="xtick_27"/>
   </g>
   <g id="matplotlib.axis_2">
    <g id="ytick_1">
     <g id="line2d_6">
      <path d="M 57.6 271.720811 
L 414.72 271.720811 
" clip-path="url(#p7610bc6145)" style="fill: none; stroke: #ffffff; stroke-linecap: round"/>
     </g>
     <g id="text_6">
      <!-- 0.010 -->
      <g style="fill: #262626" transform="translate(16.609063 275.899952) scale(0.11 -0.11)">
       <defs>
        <path id="DejaVuSans-2e" d="M 684 794 
L 1344 794 
L 1344 0 
L 684 0 
L 684 794 
z
" transform="scale(0.015625)"/>
       </defs>
       <use xlink:href="#DejaVuSans-30"/>
       <use xlink:href="#DejaVuSans-2e" x="63.623047"/>
       <use xlink:href="#DejaVuSans-30" x="95.410156"/>
       <use xlink:href="#DejaVuSans-31" x="159.033203"/>
       <use xlink:href="#DejaVuSans-30" x="222.65625"/>
      </g>
     </g>
    </g>
    <g id="ytick_2">
     <g id="line2d_7">
      <path d="M 57.6 225.132619 
L 414.72 225.132619 
" clip-path="url(#p7610bc6145)" style="fill: none; stroke: #ffffff; stroke-linecap: round"/>
     </g>
     <g id="text_7">
      <!-- 0.015 -->
      <g style="fill: #262626" transform="translate(16.609063 229.31176) scale(0.11 -0.11)">
       <defs>
        <path id="DejaVuSans-35" d="M 691 4666 
L 3169 4666 
L 3169 4134 
L 1269 4134 
L 1269 2991 
Q 1406 3038 1543 3061 
Q 1681 3084 1819 3084 
Q 2600 3084 3056 2656 
Q 3513 2228 3513 1497 
Q 3513 744 3044 326 
Q 2575 -91 1722 -91 
Q 1428 -91 1123 -41 
Q 819 9 494 109 
L 494 744 
Q 775 591 1075 516 
Q 1375 441 1709 441 
Q 2250 441 2565 725 
Q 2881 1009 2881 1497 
Q 2881 1984 2565 2268 
Q 2250 2553 1709 2553 
Q 1456 2553 1204 2497 
Q 953 2441 691 2322 
L 691 4666 
z
" transform="scale(0.015625)"/>
       </defs>
       <use xlink:href="#DejaVuSans-30"/>
       <use xlink:href="#DejaVuSans-2e" x="63.623047"/>
       <use xlink:href="#DejaVuSans-30" x="95.410156"/>
       <use xlink:href="#DejaVuSans-31" x="159.033203"/>
       <use xlink:href="#DejaVuSans-35" x="222.65625"/>
      </g>
     </g>
    </g>
    <g id="ytick_3">
     <g id="line2d_8">
      <path d="M 57.6 178.544428 
L 414.72 178.544428 
" clip-path="url(#p7610bc6145)" style="fill: none; stroke: #ffffff; stroke-linecap: round"/>
     </g>
     <g id="text_8">
      <!-- 0.020 -->
      <g style="fill: #262626" transform="translate(16.609063 182.723568) scale(0.11 -0.11)">
       <use xlink:href="#DejaVuSans-30"/>
       <use xlink:href="#DejaVuSans-2e" x="63.623047"/>
       <use xlink:href="#DejaVuSans-30" x="95.410156"/>
       <use xlink:href="#DejaVuSans-32" x="159.033203"/>
       <use xlink:href="#DejaVuSans-30" x="222.65625"/>
      </g>
     </g>
    </g>
    <g id="ytick_4">
     <g id="line2d_9">
      <path d="M 57.6 131.956236 
L 414.72 131.956236 
" clip-path="url(#p7610bc6145)" style="fill: none; stroke: #ffffff; stroke-linecap: round"/>
     </g>
     <g id="text_9">
      <!-- 0.025 -->
      <g style="fill: #262626" transform="translate(16.609063 136.135377) scale(0.11 -0.11)">
       <use xlink:href="#DejaVuSans-30"/>
       <use xlink:href="#DejaVuSans-2e" x="63.623047"/>
       <use xlink:href="#DejaVuSans-30" x="95.410156"/>
       <use xlink:href="#DejaVuSans-32" x="159.033203"/>
       <use xlink:href="#DejaVuSans-35" x="222.65625"/>
      </g>
     </g>
    </g>
    <g id="ytick_5">
     <g id="line2d_10">
      <path d="M 57.6 85.368044 
L 414.72 85.368044 
" clip-path="url(#p7610bc6145)" style="fill: none; stroke: #ffffff; stroke-linecap: round"/>
     </g>
     <g id="text_10">
      <!-- 0.030 -->
      <g style="fill: #262626" transform="translate(16.609063 89.547185) scale(0.11 -0.11)">
       <defs>
        <path id="DejaVuSans-33" d="M 2597 2516 
Q 3050 2419 3304 2112 
Q 3559 1806 3559 1356 
Q 3559 666 3084 287 
Q 2609 -91 1734 -91 
Q 1441 -91 1130 -33 
Q 819 25 488 141 
L 488 750 
Q 750 597 1062 519 
Q 1375 441 1716 441 
Q 2309 441 2620 675 
Q 2931 909 2931 1356 
Q 2931 1769 2642 2001 
Q 2353 2234 1838 2234 
L 1294 2234 
L 1294 2753 
L 1863 2753 
Q 2328 2753 2575 2939 
Q 2822 3125 2822 3475 
Q 2822 3834 2567 4026 
Q 2313 4219 1838 4219 
Q 1578 4219 1281 4162 
Q 984 4106 628 3988 
L 628 4550 
Q 988 4650 1302 4700 
Q 1616 4750 1894 4750 
Q 2613 4750 3031 4423 
Q 3450 4097 3450 3541 
Q 3450 3153 3228 2886 
Q 3006 2619 2597 2516 
z
" transform="scale(0.015625)"/>
       </defs>
       <use xlink:href="#DejaVuSans-30"/>
       <use xlink:href="#DejaVuSans-2e" x="63.623047"/>
       <use xlink:href="#DejaVuSans-30" x="95.410156"/>
       <use xlink:href="#DejaVuSans-33" x="159.033203"/>
       <use xlink:href="#DejaVuSans-30" x="222.65625"/>
      </g>
     </g>
    </g>
   </g>
   <g id="line2d_11">
    <path d="M 57.6 76.050406 
L 58.698831 66.732767 
L 60.896492 104.003321 
L 63.094154 66.732767 
L 64.192985 85.368044 
L 65.291815 85.368044 
L 67.489477 104.003321 
L 68.588308 131.956236 
L 69.687138 141.273874 
L 70.785969 141.273874 
L 71.8848 150.591513 
L 72.983631 178.544428 
L 76.280123 206.497343 
L 78.477785 206.497343 
L 79.576615 197.179704 
L 80.675446 206.497343 
L 83.971938 206.497343 
L 85.070769 243.767896 
L 86.1696 234.450258 
L 87.268431 243.767896 
L 88.367262 262.403173 
L 89.466092 262.403173 
L 90.564923 243.767896 
L 91.663754 253.085534 
L 92.762585 243.767896 
L 93.861415 225.132619 
L 96.059077 206.497343 
L 97.157908 206.497343 
L 98.256738 187.862066 
L 99.355569 150.591513 
L 100.4544 169.226789 
L 102.652062 150.591513 
L 103.750892 187.862066 
L 104.849723 178.544428 
L 105.948554 150.591513 
L 107.047385 197.179704 
L 108.146215 197.179704 
L 109.245046 187.862066 
L 110.343877 197.179704 
L 111.442708 169.226789 
L 112.541538 169.226789 
L 113.640369 178.544428 
L 114.7392 169.226789 
L 115.838031 141.273874 
L 116.936862 150.591513 
L 118.035692 150.591513 
L 120.233354 131.956236 
L 122.431015 150.591513 
L 123.529846 178.544428 
L 124.628677 159.909151 
L 125.727508 206.497343 
L 126.826338 187.862066 
L 127.925169 187.862066 
L 129.024 178.544428 
L 130.122831 178.544428 
L 131.221662 150.591513 
L 132.320492 150.591513 
L 133.419323 159.909151 
L 134.518154 150.591513 
L 135.616985 150.591513 
L 136.715815 159.909151 
L 140.012308 159.909151 
L 141.111138 169.226789 
L 142.209969 150.591513 
L 144.407631 131.956236 
L 146.605292 169.226789 
L 147.704123 178.544428 
L 148.802954 150.591513 
L 149.901785 150.591513 
L 151.000615 159.909151 
L 152.099446 141.273874 
L 154.297108 141.273874 
L 155.395938 113.320959 
L 156.494769 131.956236 
L 158.692431 94.685683 
L 159.791262 85.368044 
L 161.988923 85.368044 
L 163.087754 94.685683 
L 164.186585 113.320959 
L 166.384246 113.320959 
L 167.483077 104.003321 
L 168.581908 113.320959 
L 171.8784 113.320959 
L 172.977231 122.638598 
L 174.076062 141.273874 
L 176.273723 141.273874 
L 177.372554 122.638598 
L 178.471385 113.320959 
L 179.570215 131.956236 
L 181.767877 113.320959 
L 182.866708 113.320959 
L 183.965538 122.638598 
L 185.064369 104.003321 
L 186.1632 113.320959 
L 187.262031 104.003321 
L 189.459692 122.638598 
L 190.558523 141.273874 
L 191.657354 131.956236 
L 192.756185 141.273874 
L 194.953846 141.273874 
L 196.052677 150.591513 
L 197.151508 141.273874 
L 201.546831 141.273874 
L 202.645662 150.591513 
L 203.744492 141.273874 
L 204.843323 150.591513 
L 205.942154 169.226789 
L 207.040985 159.909151 
L 209.238646 159.909151 
L 211.436308 141.273874 
L 212.535138 122.638598 
L 214.7328 122.638598 
L 215.831631 131.956236 
L 216.930462 169.226789 
L 218.029292 197.179704 
L 219.128123 243.767896 
L 221.325785 225.132619 
L 222.424615 225.132619 
L 223.523446 206.497343 
L 226.819938 178.544428 
L 227.918769 159.909151 
L 229.0176 169.226789 
L 230.116431 169.226789 
L 231.215262 150.591513 
L 232.314092 150.591513 
L 233.412923 122.638598 
L 234.511754 141.273874 
L 235.610585 131.956236 
L 237.808246 131.956236 
L 238.907077 159.909151 
L 241.104738 159.909151 
L 242.203569 169.226789 
L 245.500062 141.273874 
L 248.796554 141.273874 
L 249.895385 122.638598 
L 250.994215 113.320959 
L 252.093046 131.956236 
L 254.290708 131.956236 
L 255.389538 159.909151 
L 256.488369 178.544428 
L 257.5872 159.909151 
L 259.784862 178.544428 
L 261.982523 159.909151 
L 263.081354 159.909151 
L 266.377846 187.862066 
L 267.476677 187.862066 
L 268.575508 178.544428 
L 278.464985 178.544428 
L 279.563815 197.179704 
L 280.662646 178.544428 
L 281.761477 178.544428 
L 282.860308 187.862066 
L 283.959138 178.544428 
L 288.354462 178.544428 
L 289.453292 169.226789 
L 290.552123 178.544428 
L 292.749785 178.544428 
L 293.848615 169.226789 
L 294.947446 178.544428 
L 296.046277 178.544428 
L 297.145108 187.862066 
L 298.243938 187.862066 
L 299.342769 206.497343 
L 300.4416 206.497343 
L 301.540431 197.179704 
L 303.738092 197.179704 
L 304.836923 206.497343 
L 305.935754 197.179704 
L 307.034585 206.497343 
L 308.133415 234.450258 
L 309.232246 225.132619 
L 312.528738 225.132619 
L 314.7264 243.767896 
L 315.825231 225.132619 
L 316.924062 215.814981 
L 319.121723 234.450258 
L 321.319385 234.450258 
L 323.517046 215.814981 
L 324.615877 197.179704 
L 326.813538 197.179704 
L 329.0112 215.814981 
L 331.208862 215.814981 
L 332.307692 225.132619 
L 333.406523 215.814981 
L 334.505354 215.814981 
L 335.604185 206.497343 
L 336.703015 215.814981 
L 337.801846 215.814981 
L 339.999508 197.179704 
L 341.098338 197.179704 
L 342.197169 206.497343 
L 343.296 197.179704 
L 344.394831 206.497343 
L 347.691323 206.497343 
L 348.790154 197.179704 
L 350.987815 215.814981 
L 352.086646 234.450258 
L 353.185477 225.132619 
L 354.284308 225.132619 
L 355.383138 234.450258 
L 356.481969 225.132619 
L 357.5808 234.450258 
L 359.778462 234.450258 
L 360.877292 253.085534 
L 361.976123 243.767896 
L 363.074954 253.085534 
L 365.272615 234.450258 
L 366.371446 243.767896 
L 367.470277 243.767896 
L 368.569108 290.356088 
L 369.667938 281.038449 
L 370.766769 281.038449 
L 371.8656 262.403173 
L 374.063262 243.767896 
L 375.162092 243.767896 
L 376.260923 225.132619 
L 378.458585 225.132619 
L 381.755077 197.179704 
L 382.853908 206.497343 
L 383.952738 197.179704 
L 385.051569 206.497343 
L 388.348062 206.497343 
L 390.545723 187.862066 
L 392.743385 206.497343 
L 393.842215 206.497343 
L 396.039877 187.862066 
L 397.138708 206.497343 
L 398.237538 197.179704 
L 400.4352 197.179704 
L 401.534031 206.497343 
L 402.632862 178.544428 
L 403.731692 187.862066 
L 404.830523 169.226789 
L 405.929354 197.179704 
L 407.028185 178.544428 
L 408.127015 206.497343 
L 409.225846 206.497343 
L 410.324677 197.179704 
L 411.423508 206.497343 
L 413.621169 206.497343 
L 414.72 197.179704 
L 414.72 197.179704 
" clip-path="url(#p7610bc6145)" style="fill: none; stroke: #d62728; stroke-width: 0.75; stroke-linecap: round"/>
   </g>
   <g id="line2d_12">
    <path d="M 57.6 57.51386 
L 58.698831 53.568 
L 59.797662 60.409163 
L 60.896492 87.821776 
L 63.094154 54.781472 
L 64.192985 66.515569 
L 66.390646 62.593488 
L 67.489477 79.349067 
L 68.588308 106.57934 
L 69.687138 115.504285 
L 70.785969 117.183615 
L 71.8848 124.736285 
L 72.983631 138.579637 
L 74.082462 162.492452 
L 75.181292 163.266693 
L 76.280123 188.519918 
L 77.378954 187.648601 
L 78.477785 185.322169 
L 79.576615 184.18365 
L 80.675446 178.048057 
L 81.774277 187.204628 
L 82.873108 186.7538 
L 83.971938 180.848613 
L 85.070769 210.850817 
L 86.1696 218.546176 
L 87.268431 214.828681 
L 88.367262 236.750138 
L 89.466092 228.949444 
L 90.564923 223.016393 
L 91.663754 222.305185 
L 92.762585 239.386608 
L 93.861415 212.520463 
L 94.960246 194.375191 
L 96.059077 195.39281 
L 97.157908 172.230348 
L 98.256738 172.992101 
L 99.355569 137.682064 
L 100.4544 144.35509 
L 101.553231 136.248361 
L 102.652062 118.990902 
L 103.750892 148.703023 
L 104.849723 162.043842 
L 105.948554 138.756017 
L 107.047385 130.009226 
L 108.146215 151.897765 
L 109.245046 144.346057 
L 110.343877 147.148542 
L 111.442708 130.41788 
L 112.541538 127.168971 
L 113.640369 121.356846 
L 114.7392 121.014897 
L 115.838031 98.47105 
L 116.936862 98.020311 
L 118.035692 111.831159 
L 119.134523 100.249174 
L 120.233354 85.240278 
L 121.332185 89.410724 
L 122.431015 85.687539 
L 123.529846 104.616946 
L 124.628677 102.703361 
L 126.826338 128.176086 
L 127.925169 124.441364 
L 129.024 130.426795 
L 130.122831 128.841574 
L 131.221662 103.940632 
L 132.320492 94.308249 
L 133.419323 87.14944 
L 134.518154 86.403803 
L 135.616985 81.862988 
L 136.715815 93.436661 
L 137.814646 99.589153 
L 138.913477 81.594326 
L 140.012308 92.56336 
L 141.111138 116.697278 
L 142.209969 151.370688 
L 144.407631 123.345044 
L 145.506462 130.10133 
L 146.605292 155.061458 
L 147.704123 173.622073 
L 148.802954 159.728691 
L 149.901785 150.753441 
L 151.000615 152.760326 
L 152.099446 143.977033 
L 153.198277 136.425357 
L 154.297108 135.539202 
L 155.395938 125.022451 
L 157.5936 122.491056 
L 158.692431 98.984786 
L 159.791262 85.299894 
L 160.890092 79.515924 
L 161.988923 84.127433 
L 163.087754 85.176068 
L 164.186585 100.715412 
L 165.285415 104.251763 
L 167.483077 106.058713 
L 168.581908 104.147804 
L 169.680738 110.499626 
L 170.779569 109.372404 
L 171.8784 110.492332 
L 172.977231 114.503794 
L 174.076062 132.514326 
L 175.174892 137.805973 
L 176.273723 135.235068 
L 177.372554 128.63552 
L 178.471385 115.461808 
L 179.570215 115.312376 
L 180.669046 120.766259 
L 181.767877 114.810573 
L 182.866708 104.873525 
L 183.965538 112.058544 
L 185.064369 103.799921 
L 186.1632 105.935163 
L 187.262031 112.946891 
L 188.360862 110.675118 
L 189.459692 114.160545 
L 190.558523 130.746584 
L 191.657354 134.265411 
L 192.756185 135.242558 
L 193.855015 138.626094 
L 194.953846 138.304546 
L 196.052677 139.106524 
L 197.151508 138.621527 
L 198.250338 131.783826 
L 199.349169 137.836237 
L 200.448 136.687795 
L 201.546831 138.816409 
L 202.645662 142.787099 
L 203.744492 144.946878 
L 204.843323 142.461634 
L 205.942154 155.205274 
L 207.040985 161.160895 
L 208.139815 158.786181 
L 209.238646 158.32045 
L 212.535138 135.356352 
L 213.633969 120.339724 
L 214.7328 119.020171 
L 215.831631 129.669507 
L 216.930462 154.945643 
L 218.029292 189.894889 
L 219.128123 212.207873 
L 220.226954 241.467883 
L 221.325785 230.935528 
L 222.424615 217.889044 
L 223.523446 215.364781 
L 224.622277 199.694052 
L 225.721108 192.128312 
L 226.819938 171.677933 
L 227.918769 169.152836 
L 229.0176 159.198974 
L 230.116431 163.158168 
L 231.215262 149.869114 
L 232.314092 144.786374 
L 233.412923 129.283348 
L 234.511754 124.706631 
L 235.610585 130.714037 
L 236.709415 129.312721 
L 237.808246 123.36739 
L 238.907077 140.820911 
L 240.005908 150.255985 
L 241.104738 156.328098 
L 242.203569 161.145712 
L 243.3024 158.478879 
L 244.401231 154.258368 
L 246.598892 137.729902 
L 247.697723 135.889007 
L 248.796554 137.668942 
L 250.994215 111.538404 
L 252.093046 120.199205 
L 253.191877 138.198857 
L 254.290708 130.993934 
L 255.389538 147.534624 
L 256.488369 170.136911 
L 258.686031 162.334403 
L 259.784862 166.176539 
L 260.883692 160.53448 
L 261.982523 160.630301 
L 263.081354 157.826477 
L 264.180185 163.228717 
L 266.377846 178.243836 
L 267.476677 181.492595 
L 269.674338 171.347502 
L 270.773169 169.009547 
L 271.872 173.214407 
L 272.970831 171.812349 
L 274.069662 169.253398 
L 275.168492 169.365832 
L 276.267323 169.60029 
L 277.366154 174.20927 
L 278.464985 177.292401 
L 279.563815 189.414559 
L 280.662646 185.657167 
L 281.761477 178.475555 
L 282.860308 182.121588 
L 283.959138 177.192623 
L 285.057969 179.163277 
L 286.1568 177.719575 
L 287.255631 177.979405 
L 288.354462 180.998005 
L 289.453292 173.309734 
L 290.552123 173.346288 
L 291.650954 176.080052 
L 292.749785 175.47533 
L 293.848615 173.418054 
L 294.947446 178.917141 
L 296.046277 181.086027 
L 297.145108 187.808809 
L 298.243938 191.267497 
L 299.342769 204.418377 
L 300.4416 210.841134 
L 301.540431 199.976898 
L 302.639262 193.426382 
L 303.738092 191.950072 
L 304.836923 193.199778 
L 305.935754 199.970589 
L 307.034585 203.846288 
L 308.133415 219.731621 
L 309.232246 218.972259 
L 310.331077 226.547116 
L 311.429908 220.898147 
L 312.528738 223.209684 
L 313.627569 238.18196 
L 314.7264 241.008023 
L 315.825231 228.102547 
L 316.924062 218.630774 
L 318.022892 220.522373 
L 319.121723 232.619327 
L 320.220554 239.933011 
L 321.319385 239.411096 
L 322.418215 235.726701 
L 323.517046 226.920876 
L 324.615877 208.167284 
L 325.714708 204.280075 
L 326.813538 202.802563 
L 329.0112 209.139933 
L 330.110031 217.248548 
L 331.208862 221.891903 
L 332.307692 230.162425 
L 333.406523 222.074725 
L 334.505354 218.420209 
L 336.703015 212.429601 
L 337.801846 214.700971 
L 338.900677 211.275563 
L 339.999508 200.599667 
L 341.098338 198.786697 
L 342.197169 200.007019 
L 343.296 200.719014 
L 344.394831 193.955841 
L 346.592492 200.67061 
L 347.691323 200.331132 
L 348.790154 200.560212 
L 349.888985 201.759988 
L 350.987815 207.791679 
L 352.086646 230.766341 
L 353.185477 233.025298 
L 354.284308 228.004956 
L 355.383138 226.237733 
L 356.481969 225.304223 
L 357.5808 231.270697 
L 358.679631 238.200324 
L 359.778462 238.079065 
L 360.877292 247.938999 
L 361.976123 248.719585 
L 363.074954 248.898747 
L 364.173785 242.66414 
L 365.272615 238.24728 
L 366.371446 234.519953 
L 367.470277 238.748051 
L 368.569108 291.981031 
L 369.667938 294.351948 
L 370.766769 295.488 
L 371.8656 284.108513 
L 372.964431 275.585512 
L 374.063262 253.38342 
L 375.162092 251.744058 
L 376.260923 248.714261 
L 377.359754 241.377933 
L 378.458585 236.477775 
L 379.557415 227.41917 
L 380.656246 214.099516 
L 381.755077 202.915697 
L 382.853908 207.943228 
L 383.952738 195.912597 
L 385.051569 200.169504 
L 386.1504 208.57952 
L 387.249231 210.725621 
L 388.348062 204.06702 
L 389.446892 193.560523 
L 390.545723 186.366242 
L 391.644554 192.503136 
L 392.743385 196.293892 
L 393.842215 198.636927 
L 394.941046 173.596321 
L 396.039877 173.485605 
L 397.138708 182.353843 
L 398.237538 177.489136 
L 399.336369 190.946857 
L 400.4352 189.633302 
L 401.534031 191.249014 
L 402.632862 184.473052 
L 403.731692 178.87688 
L 404.830523 182.995166 
L 405.929354 187.820668 
L 407.028185 182.077679 
L 408.127015 194.412346 
L 409.225846 202.85426 
L 410.324677 199.810253 
L 411.423508 195.03068 
L 412.522338 200.883849 
L 413.621169 201.738343 
L 414.72 204.795379 
L 414.72 204.795379 
" clip-path="url(#p7610bc6145)" style="fill: none; stroke: #1f77b4; stroke-width: 0.75; stroke-linecap: round"/>
   </g>
   <g id="patch_3">
    <path d="M 57.6 307.584 
L 57.6 41.472 
" style="fill: none; stroke: #ffffff; stroke-width: 1.25; stroke-linejoin: miter; stroke-linecap: square"/>
   </g>
   <g id="patch_4">
    <path d="M 414.72 307.584 
L 414.72 41.472 
" style="fill: none; stroke: #ffffff; stroke-width: 1.25; stroke-linejoin: miter; stroke-linecap: square"/>
   </g>
   <g id="patch_5">
    <path d="M 57.6 307.584 
L 414.72 307.584 
" style="fill: none; stroke: #ffffff; stroke-width: 1.25; stroke-linejoin: miter; stroke-linecap: square"/>
   </g>
   <g id="patch_6">
    <path d="M 57.6 41.472 
L 414.72 41.472 
" style="fill: none; stroke: #ffffff; stroke-width: 1.25; stroke-linejoin: miter; stroke-linecap: square"/>
   </g>
   <g id="text_11">
    <!-- Empirical vs. Reported Yield Spread -->
    <g style="fill: #262626" transform="translate(129.260625 35.472) scale(0.12 -0.12)">
     <defs>
      <path id="DejaVuSans-45" d="M 628 4666 
L 3578 4666 
L 3578 4134 
L 1259 4134 
L 1259 2753 
L 3481 2753 
L 3481 2222 
L 1259 2222 
L 1259 531 
L 3634 531 
L 3634 0 
L 628 0 
L 628 4666 
z
" transform="scale(0.015625)"/>
      <path id="DejaVuSans-6d" d="M 3328 2828 
Q 3544 3216 3844 3400 
Q 4144 3584 4550 3584 
Q 5097 3584 5394 3201 
Q 5691 2819 5691 2113 
L 5691 0 
L 5113 0 
L 5113 2094 
Q 5113 2597 4934 2840 
Q 4756 3084 4391 3084 
Q 3944 3084 3684 2787 
Q 3425 2491 3425 1978 
L 3425 0 
L 2847 0 
L 2847 2094 
Q 2847 2600 2669 2842 
Q 2491 3084 2119 3084 
Q 1678 3084 1418 2786 
Q 1159 2488 1159 1978 
L 1159 0 
L 581 0 
L 581 3500 
L 1159 3500 
L 1159 2956 
Q 1356 3278 1631 3431 
Q 1906 3584 2284 3584 
Q 2666 3584 2933 3390 
Q 3200 3197 3328 2828 
z
" transform="scale(0.015625)"/>
      <path id="DejaVuSans-70" d="M 1159 525 
L 1159 -1331 
L 581 -1331 
L 581 3500 
L 1159 3500 
L 1159 2969 
Q 1341 3281 1617 3432 
Q 1894 3584 2278 3584 
Q 2916 3584 3314 3078 
Q 3713 2572 3713 1747 
Q 3713 922 3314 415 
Q 2916 -91 2278 -91 
Q 1894 -91 1617 61 
Q 1341 213 1159 525 
z
M 3116 1747 
Q 3116 2381 2855 2742 
Q 2594 3103 2138 3103 
Q 1681 3103 1420 2742 
Q 1159 2381 1159 1747 
Q 1159 1113 1420 752 
Q 1681 391 2138 391 
Q 2594 391 2855 752 
Q 3116 1113 3116 1747 
z
" transform="scale(0.015625)"/>
      <path id="DejaVuSans-69" d="M 603 3500 
L 1178 3500 
L 1178 0 
L 603 0 
L 603 3500 
z
M 603 4863 
L 1178 4863 
L 1178 4134 
L 603 4134 
L 603 4863 
z
" transform="scale(0.015625)"/>
      <path id="DejaVuSans-72" d="M 2631 2963 
Q 2534 3019 2420 3045 
Q 2306 3072 2169 3072 
Q 1681 3072 1420 2755 
Q 1159 2438 1159 1844 
L 1159 0 
L 581 0 
L 581 3500 
L 1159 3500 
L 1159 2956 
Q 1341 3275 1631 3429 
Q 1922 3584 2338 3584 
Q 2397 3584 2469 3576 
Q 2541 3569 2628 3553 
L 2631 2963 
z
" transform="scale(0.015625)"/>
      <path id="DejaVuSans-63" d="M 3122 3366 
L 3122 2828 
Q 2878 2963 2633 3030 
Q 2388 3097 2138 3097 
Q 1578 3097 1268 2742 
Q 959 2388 959 1747 
Q 959 1106 1268 751 
Q 1578 397 2138 397 
Q 2388 397 2633 464 
Q 2878 531 3122 666 
L 3122 134 
Q 2881 22 2623 -34 
Q 2366 -91 2075 -91 
Q 1284 -91 818 406 
Q 353 903 353 1747 
Q 353 2603 823 3093 
Q 1294 3584 2113 3584 
Q 2378 3584 2631 3529 
Q 2884 3475 3122 3366 
z
" transform="scale(0.015625)"/>
      <path id="DejaVuSans-61" d="M 2194 1759 
Q 1497 1759 1228 1600 
Q 959 1441 959 1056 
Q 959 750 1161 570 
Q 1363 391 1709 391 
Q 2188 391 2477 730 
Q 2766 1069 2766 1631 
L 2766 1759 
L 2194 1759 
z
M 3341 1997 
L 3341 0 
L 2766 0 
L 2766 531 
Q 2569 213 2275 61 
Q 1981 -91 1556 -91 
Q 1019 -91 701 211 
Q 384 513 384 1019 
Q 384 1609 779 1909 
Q 1175 2209 1959 2209 
L 2766 2209 
L 2766 2266 
Q 2766 2663 2505 2880 
Q 2244 3097 1772 3097 
Q 1472 3097 1187 3025 
Q 903 2953 641 2809 
L 641 3341 
Q 956 3463 1253 3523 
Q 1550 3584 1831 3584 
Q 2591 3584 2966 3190 
Q 3341 2797 3341 1997 
z
" transform="scale(0.015625)"/>
      <path id="DejaVuSans-6c" d="M 603 4863 
L 1178 4863 
L 1178 0 
L 603 0 
L 603 4863 
z
" transform="scale(0.015625)"/>
      <path id="DejaVuSans-20" transform="scale(0.015625)"/>
      <path id="DejaVuSans-76" d="M 191 3500 
L 800 3500 
L 1894 563 
L 2988 3500 
L 3597 3500 
L 2284 0 
L 1503 0 
L 191 3500 
z
" transform="scale(0.015625)"/>
      <path id="DejaVuSans-73" d="M 2834 3397 
L 2834 2853 
Q 2591 2978 2328 3040 
Q 2066 3103 1784 3103 
Q 1356 3103 1142 2972 
Q 928 2841 928 2578 
Q 928 2378 1081 2264 
Q 1234 2150 1697 2047 
L 1894 2003 
Q 2506 1872 2764 1633 
Q 3022 1394 3022 966 
Q 3022 478 2636 193 
Q 2250 -91 1575 -91 
Q 1294 -91 989 -36 
Q 684 19 347 128 
L 347 722 
Q 666 556 975 473 
Q 1284 391 1588 391 
Q 1994 391 2212 530 
Q 2431 669 2431 922 
Q 2431 1156 2273 1281 
Q 2116 1406 1581 1522 
L 1381 1569 
Q 847 1681 609 1914 
Q 372 2147 372 2553 
Q 372 3047 722 3315 
Q 1072 3584 1716 3584 
Q 2034 3584 2315 3537 
Q 2597 3491 2834 3397 
z
" transform="scale(0.015625)"/>
      <path id="DejaVuSans-52" d="M 2841 2188 
Q 3044 2119 3236 1894 
Q 3428 1669 3622 1275 
L 4263 0 
L 3584 0 
L 2988 1197 
Q 2756 1666 2539 1819 
Q 2322 1972 1947 1972 
L 1259 1972 
L 1259 0 
L 628 0 
L 628 4666 
L 2053 4666 
Q 2853 4666 3247 4331 
Q 3641 3997 3641 3322 
Q 3641 2881 3436 2590 
Q 3231 2300 2841 2188 
z
M 1259 4147 
L 1259 2491 
L 2053 2491 
Q 2509 2491 2742 2702 
Q 2975 2913 2975 3322 
Q 2975 3731 2742 3939 
Q 2509 4147 2053 4147 
L 1259 4147 
z
" transform="scale(0.015625)"/>
      <path id="DejaVuSans-65" d="M 3597 1894 
L 3597 1613 
L 953 1613 
Q 991 1019 1311 708 
Q 1631 397 2203 397 
Q 2534 397 2845 478 
Q 3156 559 3463 722 
L 3463 178 
Q 3153 47 2828 -22 
Q 2503 -91 2169 -91 
Q 1331 -91 842 396 
Q 353 884 353 1716 
Q 353 2575 817 3079 
Q 1281 3584 2069 3584 
Q 2775 3584 3186 3129 
Q 3597 2675 3597 1894 
z
M 3022 2063 
Q 3016 2534 2758 2815 
Q 2500 3097 2075 3097 
Q 1594 3097 1305 2825 
Q 1016 2553 972 2059 
L 3022 2063 
z
" transform="scale(0.015625)"/>
      <path id="DejaVuSans-6f" d="M 1959 3097 
Q 1497 3097 1228 2736 
Q 959 2375 959 1747 
Q 959 1119 1226 758 
Q 1494 397 1959 397 
Q 2419 397 2687 759 
Q 2956 1122 2956 1747 
Q 2956 2369 2687 2733 
Q 2419 3097 1959 3097 
z
M 1959 3584 
Q 2709 3584 3137 3096 
Q 3566 2609 3566 1747 
Q 3566 888 3137 398 
Q 2709 -91 1959 -91 
Q 1206 -91 779 398 
Q 353 888 353 1747 
Q 353 2609 779 3096 
Q 1206 3584 1959 3584 
z
" transform="scale(0.015625)"/>
      <path id="DejaVuSans-74" d="M 1172 4494 
L 1172 3500 
L 2356 3500 
L 2356 3053 
L 1172 3053 
L 1172 1153 
Q 1172 725 1289 603 
Q 1406 481 1766 481 
L 2356 481 
L 2356 0 
L 1766 0 
Q 1100 0 847 248 
Q 594 497 594 1153 
L 594 3053 
L 172 3053 
L 172 3500 
L 594 3500 
L 594 4494 
L 1172 4494 
z
" transform="scale(0.015625)"/>
      <path id="DejaVuSans-64" d="M 2906 2969 
L 2906 4863 
L 3481 4863 
L 3481 0 
L 2906 0 
L 2906 525 
Q 2725 213 2448 61 
Q 2172 -91 1784 -91 
Q 1150 -91 751 415 
Q 353 922 353 1747 
Q 353 2572 751 3078 
Q 1150 3584 1784 3584 
Q 2172 3584 2448 3432 
Q 2725 3281 2906 2969 
z
M 947 1747 
Q 947 1113 1208 752 
Q 1469 391 1925 391 
Q 2381 391 2643 752 
Q 2906 1113 2906 1747 
Q 2906 2381 2643 2742 
Q 2381 3103 1925 3103 
Q 1469 3103 1208 2742 
Q 947 2381 947 1747 
z
" transform="scale(0.015625)"/>
      <path id="DejaVuSans-59" d="M -13 4666 
L 666 4666 
L 1959 2747 
L 3244 4666 
L 3922 4666 
L 2272 2222 
L 2272 0 
L 1638 0 
L 1638 2222 
L -13 4666 
z
" transform="scale(0.015625)"/>
      <path id="DejaVuSans-53" d="M 3425 4513 
L 3425 3897 
Q 3066 4069 2747 4153 
Q 2428 4238 2131 4238 
Q 1616 4238 1336 4038 
Q 1056 3838 1056 3469 
Q 1056 3159 1242 3001 
Q 1428 2844 1947 2747 
L 2328 2669 
Q 3034 2534 3370 2195 
Q 3706 1856 3706 1288 
Q 3706 609 3251 259 
Q 2797 -91 1919 -91 
Q 1588 -91 1214 -16 
Q 841 59 441 206 
L 441 856 
Q 825 641 1194 531 
Q 1563 422 1919 422 
Q 2459 422 2753 634 
Q 3047 847 3047 1241 
Q 3047 1584 2836 1778 
Q 2625 1972 2144 2069 
L 1759 2144 
Q 1053 2284 737 2584 
Q 422 2884 422 3419 
Q 422 4038 858 4394 
Q 1294 4750 2059 4750 
Q 2388 4750 2728 4690 
Q 3069 4631 3425 4513 
z
" transform="scale(0.015625)"/>
     </defs>
     <use xlink:href="#DejaVuSans-45"/>
     <use xlink:href="#DejaVuSans-6d" x="63.183594"/>
     <use xlink:href="#DejaVuSans-70" x="160.595703"/>
     <use xlink:href="#DejaVuSans-69" x="224.072266"/>
     <use xlink:href="#DejaVuSans-72" x="251.855469"/>
     <use xlink:href="#DejaVuSans-69" x="292.96875"/>
     <use xlink:href="#DejaVuSans-63" x="320.751953"/>
     <use xlink:href="#DejaVuSans-61" x="375.732422"/>
     <use xlink:href="#DejaVuSans-6c" x="437.011719"/>
     <use xlink:href="#DejaVuSans-20" x="464.794922"/>
     <use xlink:href="#DejaVuSans-76" x="496.582031"/>
     <use xlink:href="#DejaVuSans-73" x="555.761719"/>
     <use xlink:href="#DejaVuSans-2e" x="607.861328"/>
     <use xlink:href="#DejaVuSans-20" x="639.648438"/>
     <use xlink:href="#DejaVuSans-52" x="671.435547"/>
     <use xlink:href="#DejaVuSans-65" x="736.417969"/>
     <use xlink:href="#DejaVuSans-70" x="797.941406"/>
     <use xlink:href="#DejaVuSans-6f" x="861.417969"/>
     <use xlink:href="#DejaVuSans-72" x="922.599609"/>
     <use xlink:href="#DejaVuSans-74" x="963.712891"/>
     <use xlink:href="#DejaVuSans-65" x="1002.921875"/>
     <use xlink:href="#DejaVuSans-64" x="1064.445312"/>
     <use xlink:href="#DejaVuSans-20" x="1127.921875"/>
     <use xlink:href="#DejaVuSans-59" x="1159.708984"/>
     <use xlink:href="#DejaVuSans-69" x="1217.167969"/>
     <use xlink:href="#DejaVuSans-65" x="1244.951172"/>
     <use xlink:href="#DejaVuSans-6c" x="1306.474609"/>
     <use xlink:href="#DejaVuSans-64" x="1334.257812"/>
     <use xlink:href="#DejaVuSans-20" x="1397.734375"/>
     <use xlink:href="#DejaVuSans-53" x="1429.521484"/>
     <use xlink:href="#DejaVuSans-70" x="1492.998047"/>
     <use xlink:href="#DejaVuSans-72" x="1556.474609"/>
     <use xlink:href="#DejaVuSans-65" x="1595.337891"/>
     <use xlink:href="#DejaVuSans-61" x="1656.861328"/>
     <use xlink:href="#DejaVuSans-64" x="1718.140625"/>
    </g>
   </g>
   <g id="legend_1">
    <g id="patch_7">
     <path d="M 284.737813 82.563875 
L 407.02 82.563875 
Q 409.22 82.563875 409.22 80.363875 
L 409.22 49.172 
Q 409.22 46.972 407.02 46.972 
L 284.737813 46.972 
Q 282.537813 46.972 282.537813 49.172 
L 282.537813 80.363875 
Q 282.537813 82.563875 284.737813 82.563875 
z
" style="fill: #e3e3e3; opacity: 0.8; stroke: #cccccc; stroke-linejoin: miter"/>
    </g>
    <g id="line2d_13">
     <path d="M 286.937813 55.880281 
L 297.937813 55.880281 
L 308.937813 55.880281 
" style="fill: none; stroke: #d62728; stroke-width: 0.75; stroke-linecap: round"/>
    </g>
    <g id="text_12">
     <!-- Bank of Canada -->
     <g style="fill: #262626" transform="translate(317.737813 59.730281) scale(0.11 -0.11)">
      <defs>
       <path id="DejaVuSans-42" d="M 1259 2228 
L 1259 519 
L 2272 519 
Q 2781 519 3026 730 
Q 3272 941 3272 1375 
Q 3272 1813 3026 2020 
Q 2781 2228 2272 2228 
L 1259 2228 
z
M 1259 4147 
L 1259 2741 
L 2194 2741 
Q 2656 2741 2882 2914 
Q 3109 3088 3109 3444 
Q 3109 3797 2882 3972 
Q 2656 4147 2194 4147 
L 1259 4147 
z
M 628 4666 
L 2241 4666 
Q 2963 4666 3353 4366 
Q 3744 4066 3744 3513 
Q 3744 3084 3544 2831 
Q 3344 2578 2956 2516 
Q 3422 2416 3680 2098 
Q 3938 1781 3938 1306 
Q 3938 681 3513 340 
Q 3088 0 2303 0 
L 628 0 
L 628 4666 
z
" transform="scale(0.015625)"/>
       <path id="DejaVuSans-6e" d="M 3513 2113 
L 3513 0 
L 2938 0 
L 2938 2094 
Q 2938 2591 2744 2837 
Q 2550 3084 2163 3084 
Q 1697 3084 1428 2787 
Q 1159 2491 1159 1978 
L 1159 0 
L 581 0 
L 581 3500 
L 1159 3500 
L 1159 2956 
Q 1366 3272 1645 3428 
Q 1925 3584 2291 3584 
Q 2894 3584 3203 3211 
Q 3513 2838 3513 2113 
z
" transform="scale(0.015625)"/>
       <path id="DejaVuSans-6b" d="M 581 4863 
L 1159 4863 
L 1159 1991 
L 2875 3500 
L 3609 3500 
L 1753 1863 
L 3688 0 
L 2938 0 
L 1159 1709 
L 1159 0 
L 581 0 
L 581 4863 
z
" transform="scale(0.015625)"/>
       <path id="DejaVuSans-66" d="M 2375 4863 
L 2375 4384 
L 1825 4384 
Q 1516 4384 1395 4259 
Q 1275 4134 1275 3809 
L 1275 3500 
L 2222 3500 
L 2222 3053 
L 1275 3053 
L 1275 0 
L 697 0 
L 697 3053 
L 147 3053 
L 147 3500 
L 697 3500 
L 697 3744 
Q 697 4328 969 4595 
Q 1241 4863 1831 4863 
L 2375 4863 
z
" transform="scale(0.015625)"/>
       <path id="DejaVuSans-43" d="M 4122 4306 
L 4122 3641 
Q 3803 3938 3442 4084 
Q 3081 4231 2675 4231 
Q 1875 4231 1450 3742 
Q 1025 3253 1025 2328 
Q 1025 1406 1450 917 
Q 1875 428 2675 428 
Q 3081 428 3442 575 
Q 3803 722 4122 1019 
L 4122 359 
Q 3791 134 3420 21 
Q 3050 -91 2638 -91 
Q 1578 -91 968 557 
Q 359 1206 359 2328 
Q 359 3453 968 4101 
Q 1578 4750 2638 4750 
Q 3056 4750 3426 4639 
Q 3797 4528 4122 4306 
z
" transform="scale(0.015625)"/>
      </defs>
      <use xlink:href="#DejaVuSans-42"/>
      <use xlink:href="#DejaVuSans-61" x="68.603516"/>
      <use xlink:href="#DejaVuSans-6e" x="129.882812"/>
      <use xlink:href="#DejaVuSans-6b" x="193.261719"/>
      <use xlink:href="#DejaVuSans-20" x="251.171875"/>
      <use xlink:href="#DejaVuSans-6f" x="282.958984"/>
      <use xlink:href="#DejaVuSans-66" x="344.140625"/>
      <use xlink:href="#DejaVuSans-20" x="379.345703"/>
      <use xlink:href="#DejaVuSans-43" x="411.132812"/>
      <use xlink:href="#DejaVuSans-61" x="480.957031"/>
      <use xlink:href="#DejaVuSans-6e" x="542.236328"/>
      <use xlink:href="#DejaVuSans-61" x="605.615234"/>
      <use xlink:href="#DejaVuSans-64" x="666.894531"/>
      <use xlink:href="#DejaVuSans-61" x="730.371094"/>
     </g>
    </g>
    <g id="line2d_14">
     <path d="M 286.937813 72.026219 
L 297.937813 72.026219 
L 308.937813 72.026219 
" style="fill: none; stroke: #1f77b4; stroke-width: 0.75; stroke-linecap: round"/>
    </g>
    <g id="text_13">
     <!-- Empirical -->
     <g style="fill: #262626" transform="translate(317.737813 75.876219) scale(0.11 -0.11)">
      <use xlink:href="#DejaVuSans-45"/>
      <use xlink:href="#DejaVuSans-6d" x="63.183594"/>
      <use xlink:href="#DejaVuSans-70" x="160.595703"/>
      <use xlink:href="#DejaVuSans-69" x="224.072266"/>
      <use xlink:href="#DejaVuSans-72" x="251.855469"/>
      <use xlink:href="#DejaVuSans-69" x="292.96875"/>
      <use xlink:href="#DejaVuSans-63" x="320.751953"/>
      <use xlink:href="#DejaVuSans-61" x="375.732422"/>
      <use xlink:href="#DejaVuSans-6c" x="437.011719"/>
     </g>
    </g>
   </g>
  </g>
 </g>
 <defs>
  <clipPath id="p7610bc6145">
   <rect x="57.6" y="41.472" width="357.12" height="266.112"/>
  </clipPath>
 </defs>
</svg>
